<svg width="188" height="190" viewBox="0 0 188 190" xmlns="http://www.w3.org/2000/svg" xmlns:sketch="http://www.bohemiancoding.com/sketch/ns"><title>Imported Layers</title><desc>Created with Sketch.</desc><g sketch:type="MSLayerGroup" fill="none"><path d="M17.538 69.906l-.222-39.725 52.297 52.297 12.054-12.054-52.297-52.297 39.735.211-16.78-16.78-51.44.18-.127 51.388 16.78 16.78z" fill="#D63B3B" sketch:type="MSShapeGroup"/><path d="M17.538 69.906l-.222-39.725 52.297 52.297 12.054-12.054-52.297-52.297 39.735.211-16.78-16.78-51.44.18-.127 51.388 16.78 16.78z" stroke="#fff" stroke-width=".5" sketch:type="MSShapeGroup"/><path d="M118.759 17.895l39.725-.211-52.297 52.297 12.043 12.054 52.307-52.307-.211 39.735 16.78-16.78-.18-51.44-51.388-.127-16.78 16.78z" fill="#D63B3B" sketch:type="MSShapeGroup"/><path d="M118.759 17.895l39.725-.211-52.297 52.297 12.043 12.054 52.307-52.307-.211 39.735 16.78-16.78-.18-51.44-51.388-.127-16.78 16.78z" stroke="#fff" stroke-width=".5" sketch:type="MSShapeGroup"/><path d="M170.326 120.427l.211 39.725-52.297-52.307-12.054 12.054 52.307 52.307-39.735-.211 16.78 16.78 51.44-.18.127-51.388-16.78-16.78z" fill="#D63B3B" sketch:type="MSShapeGroup"/><path d="M170.326 120.427l.211 39.725-52.297-52.307-12.054 12.054 52.307 52.307-39.735-.211 16.78 16.78 51.44-.18.127-51.388-16.78-16.78z" stroke="#fff" stroke-width=".5" sketch:type="MSShapeGroup"/><path d="M69.106 172.428l-39.725.222 52.297-52.307-12.054-12.043-52.297 52.297.211-39.735-16.78 16.78.18 51.44 51.388.127 16.78-16.78z" fill="#D63B3B" sketch:type="MSShapeGroup"/><path d="M69.106 172.428l-39.725.222 52.297-52.307-12.054-12.043-52.297 52.297.211-39.735-16.78 16.78.18 51.44 51.388.127 16.78-16.78z" stroke="#fff" stroke-width=".5" sketch:type="MSShapeGroup"/></g></svg>