<svg width="158" height="258" viewBox="0 0 158 258" xmlns="http://www.w3.org/2000/svg" xmlns:sketch="http://www.bohemiancoding.com/sketch/ns"><title>Imported Layers</title><desc>Created with Sketch.</desc><g sketch:type="MSLayerGroup" fill="#fff"><path d="M106.511 196.795h-54.308c-3.807 0-6.894 3.111-6.894 6.949 0 3.838 3.087 6.949 6.894 6.949h54.308c3.807 0 6.884-3.111 6.884-6.949 0-3.838-3.078-6.949-6.884-6.949" sketch:type="MSShapeGroup"/><path d="M105.265 219.929h-51.815c-3.816 0-6.894 3.101-6.894 6.939s3.078 6.949 6.894 6.949h51.824c3.797 0 6.884-3.111 6.884-6.949 0-3.838-3.087-6.939-6.894-6.939" sketch:type="MSShapeGroup"/><path d="M73.95 257.746h10.317c5.235 0 6.53-2.326 20.643-15.018h-51.115c13.424 12.51 14.804 15.018 20.154 15.018" sketch:type="MSShapeGroup"/><path d="M79.386.409c-39.235 0-78.48 25.307-78.48 75.863 0 47.044 40.127 73.403 40.127 110.521h76.648c0-37.118 40.127-63.478 40.127-110.521 0-50.585-39.206-75.863-78.422-75.863zm21.66 167.242h-43.377c-3.768-14.242-11.17-26.81-18.39-39.08-9.876-16.76-19.196-32.6-19.196-52.298 0-39.176 29.781-56.711 59.303-56.72 29.493 0 59.246 17.544 59.246 56.72 0 19.698-9.329 35.539-19.196 52.298-7.23 12.271-14.622 24.838-18.39 39.08z" sketch:type="MSShapeGroup"/></g></svg>