<svg width="236" height="268" viewBox="0 0 236 268" xmlns="http://www.w3.org/2000/svg" xmlns:sketch="http://www.bohemiancoding.com/sketch/ns"><title>Group</title><desc>Created with Sketch.</desc><g sketch:type="MSShapeGroup" fill="#fff"><path d="M141.121 215.432h-46.634c-3.269 0-5.92 2.679-5.92 5.984s2.651 5.984 5.92 5.984h46.634c3.269 0 5.912-2.679 5.912-5.984s-2.643-5.984-5.912-5.984M140.05 235.354h-44.501c-3.269 0-5.92 2.671-5.92 5.976s2.651 5.984 5.92 5.984h44.501c3.269 0 5.92-2.679 5.92-5.984s-2.651-5.976-5.92-5.976M113.16 267.92h8.859c4.495 0 5.607-2.003 17.726-12.932h-43.892c11.527 10.773 12.712 12.932 17.306 12.932" id="Shape"/><path d="M117.829 46.314c-33.691 0-67.398 21.793-67.398 65.329 0 40.512 34.465 63.211 34.465 95.175h65.817c0-31.964 34.457-54.664 34.457-95.175 0-43.561-33.666-65.329-67.34-65.329h-.001zM110.213.058h16.121v29.327h-16.121v-29.327zM181.67 15.644l-14.203-7.707-14.178 26.722 14.202 7.707 14.178-26.722M222.886 55.999l-9.386-13.246-25.787 18.686 9.386 13.246 25.787-18.686M190.669 162.005l29.014 11.886 6.052-15.1-29.014-11.886-6.052 15.1" id="Shape"/><path d="M202.508 101.192h32.876v16.295h-32.876v-16.295zM82.384 34.66l-14.178-26.722-14.203 7.707 14.186 26.722 14.194-7.707M12.78 55.999l25.795 18.686 9.386-13.246-25.787-18.686-9.394 13.246M9.659 158.906l6.611 14.861 29.014-13.188-6.611-14.861-29.014 13.188" id="Shape"/><path d="M.29 101.192h32.876v16.295h-32.876v-16.295z"/></g></svg>