<svg width="211" height="304" viewBox="0 0 211 304" xmlns="http://www.w3.org/2000/svg" xmlns:sketch="http://www.bohemiancoding.com/sketch/ns"><title>Imported Layers</title><desc>Created with Sketch.</desc><g sketch:type="MSLayerGroup" fill="#fff"><path d="M160.601 244.343h-52.855c-3.705 0-6.711 3.033-6.711 6.776s3.005 6.776 6.711 6.776h52.855c3.705 0 6.711-3.033 6.711-6.776s-3.005-6.776-6.711-6.776" sketch:type="MSShapeGroup"/><path d="M159.397 266.901h-50.447c-3.705 0-6.711 3.024-6.711 6.767 0 3.743 3.005 6.776 6.711 6.776h50.447c3.705 0 6.711-3.033 6.711-6.776s-3.005-6.767-6.711-6.767" sketch:type="MSShapeGroup"/><path d="M128.915 303.777h10.043c5.096 0 6.347-2.268 20.095-14.644h-49.756c13.057 12.199 14.411 14.644 19.619 14.644" sketch:type="MSShapeGroup"/><path d="M134.207 52.841c-38.192 0-76.403 24.677-76.403 73.976 0 45.873 39.06 71.577 39.06 107.772h74.62c0-36.195 39.06-61.899 39.06-107.772 0-49.327-38.164-73.976-76.337-73.976zm21.084 163.081h-42.233c-3.659-13.888-10.864-26.143-17.892-38.108-9.613-16.343-18.695-31.789-18.695-50.997 0-38.201 28.999-55.3 57.736-55.309 28.7 0 57.671 17.108 57.671 55.309 0 19.208-9.081 34.655-18.695 50.997-7.028 11.965-14.224 24.22-17.892 38.108z" sketch:type="MSShapeGroup"/><path d="M125.564.463h18.275v33.208h-18.275v-33.208z" sketch:type="MSShapeGroup"/><path d="M206.577 18.112l-16.1-8.727-16.072 30.259 16.1 8.727 16.072-30.259" sketch:type="MSShapeGroup"/><path d="M94.027 39.644l-16.081-30.259-16.091 8.727 16.072 30.259 16.1-8.727" sketch:type="MSShapeGroup"/><path d="M15.123 63.808l29.241 21.159 10.64-14.999-29.232-21.159-10.649 14.999" sketch:type="MSShapeGroup"/><path d="M11.585 180.335l7.495 16.828 32.881-14.933-7.485-16.828-32.891 14.933" sketch:type="MSShapeGroup"/><path d="M.964 114.983h37.268v18.452h-37.268v-18.452z" sketch:type="MSShapeGroup"/></g></svg>