<svg width="399" height="398" viewBox="0 0 399 398" xmlns="http://www.w3.org/2000/svg" xmlns:sketch="http://www.bohemiancoding.com/sketch/ns"><title>Imported Layers</title><desc>Created with Sketch.</desc><path d="M0 397.997h398.141v-397.997h-398.141v397.997zm115.559-58.74c-18.063.001-36.126.001-54.188.001h-2.512v-187.788c0-2.617.004-2.624 2.709-2.624 17.932-.002 35.864-.002 53.796 0 2.814.001 2.823.01 2.823 2.843.002 61.622.001 123.244 0 184.865 0 2.7-.007 2.703-2.628 2.703zm-26.945-215.792c-19.415.159-34.557-15.434-34.45-34.551-.326-18.752 15.598-34.563 34.341-34.483 19.043.081 34.707 15.202 34.654 34.469-.053 19.309-14.756 34.404-34.545 34.565zm251.109 213.082v2.711h-2.331c-18.323 0-36.646-.036-54.969.05-2.079.01-2.458-.696-2.455-2.572.043-33.059.06-66.119-.005-99.178-.017-8.665-.836-17.258-4.308-25.342-4.038-9.401-11.306-14.389-21.426-15.446-6.959-.728-13.709-.086-20.243 2.527-7.322 2.928-12.117 8.364-15.131 15.44-2.93 6.879-4.318 14.16-4.362 21.605-.197 33.306-.27 66.614-.394 99.921-.013 3.418.334 2.986-3.062 2.989-17.932.013-35.864-.029-53.795.054-2.029.009-2.493-.607-2.491-2.536.045-61.751.037-123.502.039-185.252 0-2.618.049-2.67 2.601-2.67 17.28-.005 34.56-.005 51.84.001 2.461.001 2.52.072 2.522 2.53.004 7.173-.002 14.345.007 21.518.001.671.074 1.342.145 2.563 1.874-2.726 3.327-4.996 4.935-7.15 4.863-6.513 11.011-11.572 18.071-15.517 9.754-5.451 20.238-8.107 31.427-8.357 11.37-.255 22.477.876 33.264 4.691 12.132 4.29 21.43 11.957 28.004 22.982 5.264 8.83 8.08 18.524 9.668 28.563 1.002 6.327 1.845 12.742 1.966 19.132.368 19.414.402 38.835.468 58.253.067 19.497.015 38.993.015 58.49z" fill="#fff" sketch:type="MSShapeGroup"/></svg>