<svg width="1018" height="1018" viewBox="0 0 1018 1018" xmlns="http://www.w3.org/2000/svg" xmlns:sketch="http://www.bohemiancoding.com/sketch/ns"><title>Imported Layers</title><desc>Created with Sketch.</desc><path d="M508.733 0c-280.966 0-508.733 227.768-508.733 508.733 0 280.966 227.767 508.733 508.733 508.733 280.965 0 508.733-227.767 508.733-508.733 0-280.965-227.768-508.733-508.733-508.733zm-168.575 783.964c-37.411.002-74.822.001-112.232.001h-5.202v-5.244c0-127.898 0-255.797.001-383.695 0-5.419.007-5.433 5.609-5.433 37.141-.005 74.281-.005 111.422 0 5.827.001 5.845.019 5.845 5.888.004 127.628.004 255.256.001 382.884 0 5.592-.015 5.599-5.444 5.599zm-55.807-446.939c-40.211.328-71.573-31.966-71.352-71.561-.674-38.839 32.307-71.586 71.127-71.421 39.441.168 71.884 31.487 71.774 71.391-.11 39.993-30.563 71.257-71.549 71.591zm520.086 441.325v5.615h-4.829c-37.949 0-75.899-.075-113.848.103-4.307.021-5.09-1.441-5.085-5.325.089-68.472.125-136.944-.009-205.415-.035-17.946-1.732-35.744-8.923-52.487-8.363-19.471-23.416-29.802-44.377-31.992-14.412-1.505-28.394-.177-41.927 5.235-15.165 6.064-25.096 17.323-31.338 31.978-6.069 14.248-8.943 29.327-9.035 44.747-.409 68.984-.558 137.969-.816 206.953-.026 7.079.692 6.184-6.342 6.19-37.139.028-74.279-.059-111.418.112-4.202.019-5.162-1.256-5.159-5.253.094-127.895.076-255.79.082-383.685 0-5.422.101-5.529 5.387-5.53 35.789-.01 71.578-.011 107.367.002 5.098.002 5.22.149 5.224 5.24.01 14.856-.003 29.712.014 44.568.002 1.389.153 2.779.302 5.307 3.88-5.644 6.89-10.346 10.221-14.809 10.071-13.489 22.805-23.967 37.427-32.138 20.203-11.289 41.916-16.789 65.089-17.308 23.55-.528 46.555 1.815 68.896 9.715 25.127 8.886 44.385 24.765 58 47.601 10.903 18.287 16.736 38.366 20.025 59.158 2.074 13.103 3.822 26.39 4.073 39.626.762 40.208.832 80.432.969 120.65.137 40.381.03 80.762.03 121.142z" fill="#353737" sketch:type="MSShapeGroup"/></svg>