<svg width="389" height="70" viewBox="0 0 389 70" xmlns="http://www.w3.org/2000/svg" xmlns:sketch="http://www.bohemiancoding.com/sketch/ns"><title>HBO-V_daarzitmeerachter_logo_def</title><desc>Created with Sketch.</desc><g sketch:type="MSLayerGroup" fill="#A5A1D0"><path d="M13.961 24.951v-1.368h.43c.371 0 .718-.026 1.043-.079.323-.053.604-.162.843-.326.238-.165.429-.401.572-.708.143-.308.215-.717.215-1.226v-7.637h-10.597v7.637c0 .509.072.918.215 1.226.143.307.334.543.573.708.238.164.522.273.851.326.329.053.673.079 1.034.079h.43v1.368h-9.483v-1.368h.413c.371 0 .719-.026 1.043-.079.323-.053.607-.162.851-.326.244-.165.435-.401.573-.708.138-.308.206-.717.206-1.226v-15.975c0-.478-.071-.862-.214-1.153-.143-.292-.337-.518-.581-.677-.244-.158-.528-.262-.851-.31-.324-.047-.666-.072-1.027-.072h-.413v-1.367h9.483v1.367h-.43c-.361 0-.705.027-1.034.08-.329.053-.613.162-.851.326-.239.165-.43.401-.573.708-.143.308-.215.717-.215 1.225v6.588h10.597v-6.588c0-.508-.072-.917-.215-1.225-.143-.307-.334-.543-.572-.708-.239-.164-.52-.273-.843-.326-.325-.053-.672-.08-1.043-.08h-.43v-1.367h9.484v1.367h-.414c-.371 0-.719.027-1.042.08-.324.053-.608.162-.852.326-.244.165-.435.401-.572.708-.138.308-.207.717-.207 1.225v16.007c0 .478.071.862.215 1.153.143.293.336.513.58.661.244.148.528.247.851.294.324.048.666.072 1.027.072h.414v1.368h-9.484" sketch:type="MSShapeGroup"/><path d="M32.014 23.328h3.167c.922 0 1.702-.085 2.338-.254.637-.169 1.156-.442 1.56-.819.402-.377.695-.867.875-1.473.18-.604.27-1.341.27-2.211 0-.848-.079-1.586-.238-2.212-.159-.625-.433-1.145-.82-1.559-.387-.414-.899-.721-1.535-.922-.637-.202-1.432-.303-2.387-.303h-3.23v9.753zm0-11.376h2.26c.954 0 1.749-.085 2.386-.255.636-.169 1.146-.432 1.528-.788.381-.354.654-.814.819-1.376.165-.562.247-1.235.247-2.021 0-.795-.091-1.461-.271-1.997-.18-.535-.472-.967-.875-1.296-.403-.328-.925-.562-1.567-.7-.642-.138-1.424-.208-2.347-.208h-2.18v8.641zm10.724-4.44c0 .733-.103 1.374-.31 1.926-.207.551-.491 1.034-.851 1.448-.361.414-.788.761-1.281 1.042-.493.281-1.026.517-1.599.708v.127c.742.128 1.421.345 2.036.653.616.307 1.144.707 1.584 1.201.44.493.782 1.076 1.026 1.751.244.673.366 1.439.366 2.299 0 2.099-.69 3.672-2.068 4.717-1.379 1.045-3.48 1.567-6.301 1.567h-9.707v-1.368h.414c.371 0 .719-.026 1.043-.079.323-.053.607-.162.851-.326.244-.165.435-.401.573-.708.138-.308.206-.717.206-1.226v-15.975c0-.478-.071-.862-.214-1.153-.143-.292-.337-.518-.581-.677-.244-.158-.528-.262-.851-.31-.324-.047-.666-.072-1.027-.072h-.414v-1.367h8.736c2.822 0 4.922.469 6.301 1.408 1.379.938 2.068 2.41 2.068 4.414z" sketch:type="MSShapeGroup"/><path d="M50.846 13.288c0 1.612.119 3.053.358 4.32.239 1.269.623 2.339 1.153 3.214.531.876 1.218 1.544 2.062 2.005.842.462 1.869.693 3.078.693 1.21 0 2.235-.231 3.079-.693.843-.461 1.528-1.129 2.052-2.005.525-.875.905-1.945 1.138-3.214.233-1.267.35-2.708.35-4.32s-.117-3.052-.35-4.319c-.233-1.268-.613-2.337-1.138-3.207-.524-.869-1.203-1.533-2.036-1.989-.833-.455-1.854-.684-3.063-.684-1.21 0-2.238.229-3.087.684-.849.456-1.541 1.12-2.077 1.989-.535.87-.922 1.939-1.161 3.207-.239 1.267-.358 2.707-.358 4.319zm16.882 0c0 1.793-.223 3.427-.668 4.901-.445 1.474-1.104 2.737-1.974 3.787-.869 1.05-1.941 1.861-3.213 2.434-1.273.573-2.732.86-4.376.86-1.729 0-3.235-.287-4.519-.86-1.283-.573-2.349-1.384-3.198-2.434-.849-1.05-1.485-2.315-1.909-3.795-.425-1.48-.637-3.121-.637-4.925 0-1.803.212-3.439.637-4.909.424-1.468 1.06-2.722 1.909-3.762s1.92-1.843 3.214-2.411c1.294-.567 2.805-.851 4.535-.851 1.644 0 3.097.284 4.36.851 1.262.568 2.328 1.375 3.197 2.418.87 1.045 1.529 2.303 1.974 3.771.445 1.47.668 3.112.668 4.925z" sketch:type="MSShapeGroup"/><path d="M70.075 14.847h8.48v2.451h-8.48v-2.451z" sketch:type="MSShapeGroup"/><path d="M88.811 24.951l-7.033-20.175c-.117-.339-.244-.621-.382-.843-.138-.224-.297-.398-.477-.525s-.387-.218-.621-.271c-.233-.053-.509-.08-.827-.08h-.43v-1.367h8.958v1.367h-.747c-.658 0-1.149.125-1.472.374-.324.25-.485.645-.485 1.186 0 .18.023.366.071.557.048.19.114.408.199.652l3.58 10.581c.329.965.61 1.901.844 2.808.232.908.439 1.753.62 2.538.17-.785.371-1.618.604-2.498.234-.88.531-1.83.892-2.848l3.595-10.358c.086-.266.154-.52.207-.764.053-.244.08-.456.08-.637 0-.562-.178-.967-.533-1.217-.356-.249-.894-.374-1.615-.374h-.748v-1.367h7.94v1.367h-.621c-.318 0-.591.032-.819.096-.228.063-.435.188-.62.373-.186.187-.359.444-.518.772-.159.329-.329.759-.509 1.289l-6.746 19.364h-2.387" sketch:type="MSShapeGroup"/><path d="M112.298 2.198c0-.381.048-.7.143-.954.096-.255.228-.462.398-.622.17-.158.366-.269.589-.333.223-.064.467-.095.732-.095.255 0 .493.031.716.095.223.064.416.175.581.333.164.16.297.367.397.622.101.254.152.573.152.954 0 .382-.051.701-.152.955-.1.255-.233.461-.397.62-.165.16-.358.273-.581.343-.223.069-.461.103-.716.103-.265 0-.509-.034-.732-.103-.223-.07-.419-.183-.589-.343-.17-.159-.302-.365-.398-.62-.095-.254-.143-.573-.143-.955zm-2.212 21.385c.361 0 .703-.024 1.027-.072.324-.047.607-.146.851-.294s.438-.368.581-.661c.143-.291.215-.675.215-1.153v-10.326c0-.478-.072-.862-.215-1.153-.143-.292-.337-.518-.581-.677-.244-.16-.527-.265-.851-.318-.324-.053-.666-.08-1.027-.08h-.095v-1.369h5.824v13.764c0 .509.071.918.215 1.226.143.307.334.543.572.708.239.164.523.273.852.326.328.053.673.079 1.034.079h.43v1.368h-9.261v-1.368h.429z" sketch:type="MSShapeGroup"/><path d="M128.712 23.583v1.368h-8.767v-1.368h.27c.371 0 .719-.026 1.043-.079.323-.053.604-.162.843-.326.239-.165.43-.401.573-.708.143-.308.215-.717.215-1.226v-10.167c0-.478-.072-.862-.215-1.153-.143-.292-.337-.518-.581-.677-.244-.16-.528-.265-.851-.318-.324-.053-.666-.08-1.027-.08h-.095v-1.369h5.267l.429 2.642h.159c.34-.605.698-1.1 1.074-1.488.377-.387.775-.689 1.194-.907.419-.217.864-.365 1.337-.446.471-.079.967-.118 1.487-.118.859 0 1.625.125 2.299.373.674.249 1.246.631 1.719 1.146.472.515.832 1.175 1.081 1.982.25.805.375 1.765.375 2.879v7.701c0 .509.06.918.182 1.226.122.307.295.543.517.708.223.164.488.273.796.326.307.053.642.079 1.003.079h.111v1.368h-5.68v-11.249c0-.71-.064-1.341-.191-1.893-.128-.551-.332-1.018-.613-1.401-.281-.382-.65-.671-1.106-.867-.456-.196-1.013-.294-1.67-.294-.743 0-1.366.143-1.87.43-.504.286-.91.673-1.217 1.161-.308.488-.528 1.05-.66 1.687-.133.636-.199 1.304-.199 2.005v6.873c0 .478.071.862.215 1.153.143.293.336.513.58.661.244.148.528.247.851.294.324.048.666.072 1.027.072h.095" sketch:type="MSShapeGroup"/><path d="M156.892 23.185c.849 0 1.557-.141 2.124-.421.568-.282 1.024-.708 1.369-1.281.344-.573.588-1.295.732-2.164.143-.87.215-1.894.215-3.071 0-1.135-.072-2.137-.215-3.008-.144-.869-.388-1.598-.732-2.187-.345-.588-.804-1.037-1.377-1.344-.572-.308-1.288-.462-2.148-.462-.711 0-1.32.154-1.829.462-.51.307-.926.758-1.25 1.352-.323.594-.559 1.328-.707 2.204-.149.874-.223 1.88-.223 3.015 0 2.312.313 4.042.938 5.187.626 1.145 1.66 1.718 3.103 1.718zm7.494-1.813c0 .476.072.862.215 1.153.144.292.337.517.581.676.244.159.527.263.851.31.324.048.666.072 1.026.072h.271v1.368h-5.521l-.35-2.927h-.127c-.245.499-.523.946-.836 1.344-.313.398-.671.737-1.074 1.019-.403.28-.859.498-1.368.652-.51.153-1.082.231-1.719.231-1.071 0-2.021-.178-2.848-.534-.827-.355-1.522-.901-2.084-1.639-.563-.736-.987-1.672-1.273-2.807-.287-1.136-.43-2.483-.43-4.042 0-1.57.143-2.928.43-4.074.286-1.145.71-2.089 1.273-2.832.562-.743 1.257-1.291 2.084-1.647.827-.354 1.777-.532 2.848-.532.626 0 1.193.069 1.703.206.509.138.968.335 1.376.589.408.255.772.557 1.09.907.318.35.594.737.828 1.161h.19l-.095-1.496-.064-1.2c-.021-.398-.031-.692-.031-.884v-2.673c0-.476-.072-.862-.215-1.153-.144-.292-.338-.518-.581-.676-.244-.159-.528-.263-.852-.311-.323-.047-.665-.072-1.025-.072h-.271v-1.367h5.998v21.178z" sketch:type="MSShapeGroup"/><path d="M176.568 8.913c-1.21 0-2.141.491-2.793 1.471-.652.982-1.037 2.416-1.153 4.305h7.494c0-.86-.064-1.644-.191-2.355-.127-.711-.329-1.321-.605-1.83-.276-.509-.639-.902-1.089-1.177-.452-.277-1.006-.414-1.663-.414zm.397 16.357c-1.177 0-2.235-.199-3.174-.597-.938-.397-1.731-.979-2.379-1.742-.647-.764-1.143-1.7-1.488-2.808-.344-1.109-.516-2.369-.516-3.78 0-3.044.625-5.335 1.877-6.874 1.252-1.538 3.034-2.306 5.346-2.306 1.051 0 1.994.164 2.833.493.838.328 1.548.819 2.131 1.472.584.652 1.032 1.464 1.345 2.434.313.97.469 2.098.469 3.382v1.495h-10.851c.021 1.187.141 2.209.358 3.063.218.854.53 1.557.939 2.108.408.552.909.957 1.503 1.217.594.26 1.279.39 2.053.39.562 0 1.085-.064 1.567-.191.483-.128.92-.297 1.313-.509.392-.213.74-.454 1.042-.724.303-.271.549-.555.74-.851.149.063.289.196.422.398.132.201.199.439.199.716 0 .329-.117.681-.351 1.057-.233.377-.588.724-1.066 1.043-.477.319-1.074.583-1.789.795-.717.213-1.557.319-2.523.319z" sketch:type="MSShapeGroup"/><path d="M197.842 16.184c0 1.209.08 2.275.239 3.199.159.923.416 1.693.772 2.315.355.62.816 1.089 1.384 1.408.567.317 1.26.477 2.076.477.817 0 1.507-.16 2.069-.477.563-.319 1.018-.788 1.368-1.408.351-.622.603-1.392.756-2.315.153-.924.23-1.99.23-3.199 0-1.21-.079-2.269-.237-3.182-.161-.912-.415-1.673-.765-2.283-.349-.61-.809-1.068-1.376-1.377-.567-.308-1.26-.461-2.076-.461-.817 0-1.507.153-2.069.461-.562.309-1.018.767-1.368 1.377-.35.61-.605 1.371-.764 2.283-.159.913-.239 1.972-.239 3.182zm12.061 0c0 3.066-.65 5.347-1.949 6.842-1.299 1.496-3.2 2.244-5.704 2.244-1.177 0-2.233-.186-3.166-.557-.934-.372-1.727-.934-2.379-1.687-.652-.753-1.151-1.7-1.496-2.84s-.517-2.474-.517-4.002c0-3.044.645-5.309 1.933-6.794 1.289-1.485 3.196-2.227 5.72-2.227 1.177 0 2.233.183 3.167.548.933.366 1.726.923 2.378 1.672.653.747 1.151 1.686 1.497 2.816.343 1.129.516 2.458.516 3.985z" sketch:type="MSShapeGroup"/><path d="M228.544 21.403c0 .478.072.862.215 1.153.143.293.337.513.58.661.244.148.528.247.852.294.323.048.665.072 1.026.072h.095v1.368h-5.171l-.429-2.641h-.16c-.328.616-.691 1.113-1.089 1.496-.398.382-.819.681-1.265.898-.446.218-.913.367-1.4.446-.489.079-.998.12-1.529.12-.858 0-1.622-.122-2.29-.367-.669-.243-1.23-.625-1.687-1.145-.456-.52-.803-1.183-1.043-1.989-.237-.806-.357-1.766-.357-2.88v-7.812c0-.478-.071-.862-.215-1.153-.143-.292-.337-.518-.581-.677-.244-.16-.527-.265-.85-.318-.324-.053-.667-.08-1.028-.08h-.094v-1.369h5.839v11.25c0 .711.056 1.342.167 1.893.111.552.296 1.019.557 1.401.26.382.609.671 1.05.867.441.196.989.294 1.646.294.722 0 1.339-.127 1.854-.382.516-.254.939-.612 1.274-1.073.333-.462.581-1.017.739-1.664.16-.646.239-1.362.239-2.148v-6.713c0-.511-.071-.921-.215-1.234-.143-.313-.333-.551-.573-.716-.238-.164-.52-.273-.842-.326-.324-.053-.672-.08-1.043-.08h-.096v-1.369h5.824v13.923" sketch:type="MSShapeGroup"/><path d="M240.757 23.185c.848 0 1.556-.141 2.124-.421.567-.282 1.023-.708 1.369-1.281.343-.573.588-1.295.731-2.164.143-.87.215-1.894.215-3.071 0-1.135-.072-2.137-.215-3.008-.143-.869-.388-1.598-.731-2.187-.346-.588-.804-1.037-1.377-1.344-.572-.308-1.289-.462-2.148-.462-.712 0-1.321.154-1.83.462-.51.307-.925.758-1.249 1.352-.323.594-.56 1.328-.709 2.204-.148.874-.222 1.88-.222 3.015 0 2.312.314 4.042.939 5.187.625 1.145 1.66 1.718 3.103 1.718zm7.494-1.813c0 .476.071.862.215 1.153.143.292.337.517.58.676.244.159.528.263.851.31.324.048.666.072 1.027.072h.27v1.368h-5.521l-.35-2.927h-.127c-.245.499-.524.946-.835 1.344-.314.398-.672.737-1.075 1.019-.402.28-.859.498-1.368.652-.509.153-1.082.231-1.718.231-1.071 0-2.021-.178-2.848-.534-.827-.355-1.523-.901-2.085-1.639-.563-.736-.987-1.672-1.272-2.807-.287-1.136-.43-2.483-.43-4.042 0-1.57.143-2.928.43-4.074.285-1.145.709-2.089 1.272-2.832.562-.743 1.258-1.291 2.085-1.647.827-.354 1.777-.532 2.848-.532.626 0 1.193.069 1.703.206.509.138.967.335 1.376.589.408.255.771.557 1.089.907.319.35.595.737.828 1.161h.19l-.095-1.496-.063-1.2c-.022-.398-.032-.692-.032-.884v-2.673c0-.476-.072-.862-.215-1.153-.143-.292-.337-.518-.58-.676-.245-.159-.529-.263-.853-.311-.323-.047-.664-.072-1.025-.072h-.27v-1.367h5.998v21.178z" sketch:type="MSShapeGroup"/><path d="M260.431 8.913c-1.208 0-2.139.491-2.791 1.471-.652.982-1.038 2.416-1.154 4.305h7.494c0-.86-.063-1.644-.191-2.355-.126-.711-.329-1.321-.604-1.83-.276-.509-.639-.902-1.09-1.177-.451-.277-1.005-.414-1.664-.414zm.398 16.357c-1.176 0-2.234-.199-3.173-.597-.939-.397-1.732-.979-2.379-1.742-.648-.764-1.143-1.7-1.489-2.808-.343-1.109-.516-2.369-.516-3.78 0-3.044.625-5.335 1.877-6.874 1.253-1.538 3.034-2.306 5.347-2.306 1.05 0 1.993.164 2.832.493.839.328 1.549.819 2.132 1.472.584.652 1.031 1.464 1.345 2.434.313.97.469 2.098.469 3.382v1.495h-10.852c.022 1.187.141 2.209.358 3.063.217.854.531 1.557.939 2.108.409.552.909.957 1.504 1.217.593.26 1.277.39 2.053.39.561 0 1.085-.064 1.566-.191.483-.128.921-.297 1.314-.509.391-.213.739-.454 1.041-.724.304-.271.549-.555.741-.851.148.063.289.196.421.398.132.201.199.439.199.716 0 .329-.116.681-.351 1.057-.232.377-.588.724-1.065 1.043-.478.319-1.074.583-1.791.795-.716.213-1.556.319-2.522.319z" sketch:type="MSShapeGroup"/><path d="M279.073 24.951h-9.405v-1.368h.097c.37 0 .719-.026 1.042-.079.324-.053.604-.162.843-.326.239-.165.429-.401.573-.708.143-.308.215-.717.215-1.226v-10.167c0-.478-.072-.862-.215-1.153-.144-.292-.337-.518-.581-.677-.244-.16-.528-.265-.852-.318-.324-.053-.665-.08-1.025-.08h-.097v-1.369h5.013l.62 3.23h.159c.213-.487.43-.946.654-1.376.222-.429.494-.806.817-1.13.324-.322.726-.578 1.204-.763.476-.186 1.075-.278 1.797-.278 1.187 0 2.071.206 2.649.62.578.414.868.997.868 1.75 0 .34-.057.652-.168.939-.112.287-.29.534-.533.74-.244.206-.557.366-.939.477-.381.112-.848.168-1.399.168 0-.902-.129-1.552-.383-1.949-.255-.398-.699-.597-1.337-.597-.402 0-.763.114-1.082.342-.318.227-.596.53-.835.907s-.439.809-.605 1.297c-.164.488-.296.989-.398 1.503-.101.515-.173 1.026-.215 1.535-.042.509-.063.971-.063 1.385v5.123c0 .478.072.862.215 1.153.144.293.338.513.581.661.243.148.527.247.851.294.324.048.666.072 1.026.072h.908v1.368" sketch:type="MSShapeGroup"/><path d="M292.573 8.913c-1.209 0-2.141.491-2.793 1.471-.652.982-1.036 2.416-1.153 4.305h7.495c0-.86-.064-1.644-.192-2.355-.127-.711-.328-1.321-.604-1.83-.276-.509-.639-.902-1.089-1.177-.452-.277-1.005-.414-1.664-.414zm.398 16.357c-1.177 0-2.235-.199-3.173-.597-.939-.397-1.732-.979-2.379-1.742-.648-.764-1.144-1.7-1.489-2.808-.345-1.109-.517-2.369-.517-3.78 0-3.044.626-5.335 1.877-6.874 1.253-1.538 3.034-2.306 5.346-2.306 1.051 0 1.995.164 2.834.493.837.328 1.549.819 2.132 1.472.583.652 1.03 1.464 1.344 2.434.313.97.469 2.098.469 3.382v1.495h-10.851c.021 1.187.14 2.209.358 3.063.217.854.53 1.557.939 2.108.408.552.909.957 1.503 1.217.594.26 1.278.39 2.053.39.562 0 1.084-.064 1.566-.191.484-.128.922-.297 1.314-.509.392-.213.739-.454 1.042-.724.302-.271.549-.555.74-.851.148.063.289.196.422.398.131.201.198.439.198.716 0 .329-.117.681-.35 1.057-.233.377-.589.724-1.066 1.043-.477.319-1.075.583-1.79.795-.716.213-1.557.319-2.522.319z" sketch:type="MSShapeGroup"/><path d="M310.404 23.583v1.368h-8.768v-1.368h.269c.372 0 .719-.026 1.043-.079.323-.053.605-.162.843-.326.239-.165.43-.401.574-.708.143-.308.215-.717.215-1.226v-10.167c0-.478-.072-.862-.215-1.153-.144-.292-.338-.518-.582-.677-.244-.16-.526-.265-.85-.318-.324-.053-.667-.08-1.028-.08h-.094v-1.369h5.266l.43 2.642h.159c.339-.605.697-1.1 1.074-1.488.377-.387.774-.689 1.194-.907.418-.217.864-.365 1.337-.446.472-.079.967-.118 1.487-.118.86 0 1.626.125 2.299.373.673.249 1.246.631 1.718 1.146.472.515.832 1.175 1.082 1.982.249.805.374 1.765.374 2.879v7.701c0 .509.061.918.183 1.226.122.307.295.543.518.708.222.164.486.273.795.326.306.053.642.079 1.003.079h.111v1.368h-5.681v-11.249c0-.71-.063-1.341-.191-1.893-.127-.551-.331-1.018-.613-1.401-.281-.382-.649-.671-1.105-.867-.456-.196-1.013-.294-1.671-.294-.742 0-1.365.143-1.869.43-.504.286-.911.673-1.217 1.161-.309.488-.529 1.05-.661 1.687-.132.636-.199 1.304-.199 2.005v6.873c0 .478.072.862.215 1.153.143.293.336.513.581.661.244.148.527.247.851.294.323.048.666.072 1.026.072h.097" sketch:type="MSShapeGroup"/><path d="M332.496 23.09c.381 0 .698-.074.947-.222.248-.15.455-.345.62-.59.163-.244.297-.527.398-.851.1-.323.188-.661.262-1.01l.159-.749h1.369l-.16 5.283h-13.301v-1.304l9.451-14.305h-5.091c-.425 0-.775.057-1.052.168-.275.111-.5.278-.675.5-.174.224-.318.499-.429.828-.112.329-.226.711-.343 1.146l-.032.127h-1.368l.318-4.631h12.49v1.337l-9.483 14.273h5.92" sketch:type="MSShapeGroup"/><path d="M342.702 16.184c0 1.209.081 2.275.24 3.199.158.923.415 1.693.771 2.315.355.62.817 1.089 1.384 1.408.567.317 1.26.477 2.077.477.818 0 1.507-.16 2.069-.477.562-.319 1.018-.788 1.367-1.408.351-.622.603-1.392.756-2.315.155-.924.231-1.99.231-3.199 0-1.21-.079-2.269-.238-3.182-.16-.912-.414-1.673-.764-2.283-.35-.61-.809-1.068-1.376-1.377-.568-.308-1.26-.461-2.077-.461s-1.506.153-2.068.461c-.563.309-1.018.767-1.369 1.377s-.605 1.371-.763 2.283c-.159.913-.24 1.972-.24 3.182zm12.061 0c0 3.066-.65 5.347-1.949 6.842-1.3 1.496-3.199 2.244-5.704 2.244-1.176 0-2.232-.186-3.165-.557-.934-.372-1.727-.934-2.379-1.687-.652-.753-1.151-1.7-1.497-2.84-.344-1.14-.517-2.474-.517-4.002 0-3.044.645-5.309 1.934-6.794 1.288-1.485 3.195-2.227 5.72-2.227 1.177 0 2.233.183 3.167.548.933.366 1.726.923 2.378 1.672.653.747 1.151 1.686 1.496 2.816.344 1.129.516 2.458.516 3.985z" sketch:type="MSShapeGroup"/><path d="M366.723 24.951h-9.405v-1.368h.096c.37 0 .719-.026 1.042-.079.324-.053.604-.162.843-.326.239-.165.43-.401.573-.708.143-.308.215-.717.215-1.226v-10.167c0-.478-.072-.862-.215-1.153-.143-.292-.337-.518-.581-.677-.244-.16-.528-.265-.852-.318-.324-.053-.664-.08-1.025-.08h-.096v-1.369h5.012l.62 3.23h.159c.213-.487.43-.946.654-1.376.222-.429.494-.806.818-1.13.323-.322.725-.578 1.203-.763.477-.186 1.076-.278 1.797-.278 1.187 0 2.071.206 2.65.62.578.414.867.997.867 1.75 0 .34-.057.652-.168.939-.111.287-.289.534-.533.74-.244.206-.557.366-.938.477-.382.112-.849.168-1.4.168 0-.902-.128-1.552-.383-1.949-.254-.398-.699-.597-1.336-.597-.403 0-.764.114-1.082.342-.319.227-.597.53-.835.907-.24.377-.44.809-.606 1.297-.164.488-.296.989-.398 1.503-.101.515-.172 1.026-.214 1.535-.042.509-.063.971-.063 1.385v5.123c0 .478.071.862.215 1.153.143.293.337.513.58.661.243.148.528.247.851.294.324.048.666.072 1.027.072h.908v1.368" sketch:type="MSShapeGroup"/><path d="M376.547 13.097c0 1.391.23 2.409.692 3.056.462.647 1.218.97 2.268.97.53 0 .978-.08 1.344-.239.366-.159.666-.403.899-.731.232-.329.4-.751.502-1.265.1-.515.15-1.128.15-1.838 0-1.464-.222-2.546-.668-3.246-.446-.701-1.199-1.05-2.259-1.05-1.05 0-1.801.358-2.252 1.073-.451.717-.676 1.806-.676 3.27zm-1.894 14.719c0 .477.064.923.192 1.336.126.414.349.769.667 1.066.319.297.749.53 1.29.7.541.17 1.225.255 2.053.255 1.166 0 2.129-.099 2.888-.295.757-.196 1.359-.469 1.806-.819.444-.35.757-.767.939-1.249.18-.483.269-1.01.269-1.583 0-.499-.072-.909-.215-1.233-.143-.324-.356-.578-.636-.765-.281-.185-.629-.315-1.042-.389-.415-.074-.891-.111-1.432-.111h-3.198c-.456 0-.9.04-1.328.119-.43.08-.813.231-1.147.453-.333.224-.602.536-.802.939-.203.404-.304.929-.304 1.576zm13.748-19.651c0 .233-.035.453-.104.66-.069.207-.172.387-.31.541-.137.154-.315.276-.532.366-.218.09-.475.136-.772.136 0-.128-.017-.256-.049-.383s-.086-.246-.166-.357c-.081-.112-.189-.201-.327-.27-.137-.07-.317-.104-.541-.104-.275 0-.524.032-.747.095-.222.064-.441.164-.652.303.371.455.676.994.914 1.614.24.621.358 1.398.358 2.331 0 .807-.122 1.551-.365 2.236-.245.684-.608 1.276-1.09 1.775-.484.497-1.093.888-1.83 1.168-.738.282-1.599.423-2.586.423l-.43-.009-.478-.016-.444-.031-.334-.041c-.212.107-.415.224-.605.351-.19.127-.358.271-.502.43-.143.158-.257.338-.342.541-.085.201-.127.424-.127.668 0 .265.051.477.151.636.101.16.242.285.422.373.18.092.395.15.645.176.248.027.516.039.803.039h3.691c.975 0 1.803.123 2.482.367.68.244 1.233.581 1.663 1.011.43.428.742.943.939 1.542.196.6.294 1.249.294 1.95 0 .933-.173 1.776-.516 2.529-.346.754-.873 1.392-1.584 1.917-.712.525-1.61.932-2.698 1.218-1.087.287-2.366.43-3.841.43-2.271 0-3.968-.42-5.092-1.257-1.124-.839-1.687-2.005-1.687-3.501 0-.636.111-1.193.334-1.67.224-.478.523-.887.899-1.225.377-.34.81-.615 1.296-.828.49-.212 1.003-.365 1.545-.462-.223-.095-.44-.222-.653-.381-.212-.16-.402-.35-.573-.574-.17-.222-.307-.476-.412-.763-.107-.287-.161-.604-.161-.955 0-.646.17-1.207.509-1.678.341-.472.882-.931 1.623-1.377-.467-.191-.882-.453-1.248-.788-.366-.333-.674-.715-.924-1.145-.249-.43-.439-.899-.573-1.408-.132-.509-.197-1.034-.197-1.575 0-.945.126-1.787.38-2.529.256-.743.638-1.374 1.146-1.894.509-.52 1.147-.918 1.91-1.193.763-.277 1.66-.414 2.689-.414.392 0 .78.028 1.161.088.382.058.735.137 1.059.238.324.1.615.215.874.342.26.127.47.26.629.398.16-.171.345-.358.557-.566.213-.206.451-.398.717-.572.264-.175.553-.321.867-.437.312-.117.65-.175 1.01-.175.329 0 .613.044.85.134.24.09.439.213.598.367.158.153.278.334.358.541.079.206.119.421.119.644z" sketch:type="MSShapeGroup"/><path d="M11.95 56.363c0-1.93-.305-3.428-.916-4.49-.611-1.063-1.454-1.595-2.529-1.595h-.477v12.024h.477c1.075 0 1.918-.532 2.529-1.595s.916-2.511.916-4.344zm-11.95 12.903v-25.952h8.358c2.126 0 3.928.324 5.407.971 1.478.647 2.676 1.545 3.592 2.694.916 1.149 1.582 2.524 1.998 4.125.415 1.6.623 3.353.623 5.259 0 1.883-.208 3.611-.623 5.187-.416 1.576-1.082 2.932-1.998 4.069-.916 1.136-2.114 2.029-3.592 2.676-1.479.648-3.281.971-5.407.971h-8.358z" sketch:type="MSShapeGroup"/><path d="M29.398 59.515h2.639l-1.209-8.43h-.147l-1.283 8.43zm3.592 6.159h-4.471l-.697 3.592h-7.954l6.121-25.952h9.861l6.158 25.952h-8.321l-.697-3.592z" sketch:type="MSShapeGroup"/><path d="M51.245 59.515h2.639l-1.209-8.43h-.147l-1.283 8.43zm3.592 6.159h-4.471l-.697 3.592h-7.954l6.121-25.952h9.861l6.158 25.952h-8.321l-.697-3.592z" sketch:type="MSShapeGroup"/><path d="M73.238 49.949v4.545h.661c.219 0 .463-.031.733-.092.268-.061.513-.177.733-.347.22-.172.403-.404.549-.697.148-.294.22-.672.22-1.137 0-.489-.067-.879-.201-1.173-.135-.293-.306-.525-.513-.697-.208-.17-.428-.28-.66-.329-.233-.049-.446-.073-.642-.073h-.88zm.662 10.006h-.662v9.311h-7.624v-25.952h9.66c1.493 0 2.797.195 3.911.586 1.115.391 2.026.953 2.736 1.686.711.734 1.244 1.619 1.599 2.658s.532 2.206.532 3.501c0 .879-.098 1.673-.294 2.382-.196.709-.441 1.338-.735 1.888-.295.55-.626 1.008-.993 1.375-.369.367-.737.636-1.104.806l4.153 11.07h-8.42l-2.759-9.311z" sketch:type="MSShapeGroup"/><path d="M93.252 62.888l6.855-12.572h-6.158v-7.002h15.469v6.17l-6.892 12.634h6.892v7.148h-16.166v-6.378" sketch:type="MSShapeGroup"/><path d="M112.496 43.314h8.065v25.952h-8.065v-25.952z" sketch:type="MSShapeGroup"/><path d="M134.893 69.266h-7.844v-19.207h-4.583v-6.745h17.009v6.745h-4.582v19.207" sketch:type="MSShapeGroup"/><path d="M166.234 54.457h-.147l-3.226 14.809h-5.058l-2.969-14.809h-.147l.33 14.809h-7.148v-25.952h9.494l3.043 13.563h.146l3.006-13.563h10.08v25.952h-7.771l.367-14.809" sketch:type="MSShapeGroup"/><path d="M177.45 43.314h13.856v7.002h-6.268v2.602h5.682v6.488h-5.682v2.712h6.745v7.148h-14.333v-25.952" sketch:type="MSShapeGroup"/><path d="M194.568 43.314h13.857v7.002h-6.269v2.602h5.682v6.488h-5.682v2.712h6.745v7.148h-14.333v-25.952" sketch:type="MSShapeGroup"/><path d="M219.311 49.949v4.545h.66c.22 0 .464-.031.733-.092.269-.061.514-.177.734-.347.22-.172.402-.404.549-.697.147-.294.22-.672.22-1.137 0-.489-.068-.879-.201-1.173-.135-.293-.306-.525-.514-.697-.207-.17-.427-.28-.66-.329-.232-.049-.445-.073-.641-.073h-.88zm.662 10.006h-.662v9.311h-7.624v-25.952h9.659c1.495 0 2.798.195 3.912.586 1.114.391 2.026.953 2.736 1.686.711.734 1.243 1.619 1.599 2.658.355 1.039.532 2.206.532 3.501 0 .879-.098 1.673-.294 2.382-.196.709-.441 1.338-.735 1.888-.295.55-.626 1.008-.993 1.375-.368.367-.736.636-1.104.806l4.153 11.07h-8.42l-2.759-9.311z" sketch:type="MSShapeGroup"/><path d="M247.17 59.515h2.638l-1.208-8.43h-.148l-1.282 8.43zm3.592 6.159h-4.472l-.696 3.592h-7.955l6.122-25.952h9.861l6.157 25.952h-8.32l-.697-3.592z" sketch:type="MSShapeGroup"/><path d="M260.293 56.29c0-2.077.268-3.959.805-5.645.539-1.686 1.284-3.129 2.237-4.325.953-1.197 2.083-2.12 3.391-2.769 1.307-.647 2.742-.97 4.306-.97.978 0 1.87.091 2.677.275.806.183 1.52.434 2.144.751.624.317 1.172.672 1.649 1.064.477.39.887.805 1.228 1.245l-4.252 6.049c-.317-.415-.672-.789-1.062-1.118-.392-.33-.941-.496-1.65-.496-.513 0-.971.147-1.374.44-.404.294-.752.703-1.045 1.229-.294.525-.514 1.154-.659 1.888-.147.732-.22 1.526-.22 2.382 0 .856.073 1.637.22 2.346.145.709.365 1.325.659 1.852.293.525.647.933 1.062 1.227.415.293.88.44 1.394.44.585 0 1.093-.165 1.522-.495.427-.33.775-.689 1.043-1.081l4.436 5.865c-.366.489-.794.947-1.282 1.375-.489.427-1.045.8-1.669 1.118-.624.317-1.333.574-2.126.769-.794.195-1.692.294-2.695.294-1.564 0-2.999-.331-4.306-.991-1.308-.659-2.438-1.594-3.391-2.804-.953-1.209-1.698-2.65-2.237-4.325-.537-1.674-.805-3.537-.805-5.59" sketch:type="MSShapeGroup"/><path d="M292.184 59.333h-3.52v9.933h-7.918v-25.952h7.918v8.87h3.52v-8.87h7.918v25.952h-7.918v-9.933" sketch:type="MSShapeGroup"/><path d="M314.433 69.266h-7.844v-19.207h-4.582v-6.745h17.009v6.745h-4.583v19.207" sketch:type="MSShapeGroup"/><path d="M320.92 43.314h13.857v7.002h-6.267v2.602h5.682v6.488h-5.682v2.712h6.744v7.148h-14.334v-25.952" sketch:type="MSShapeGroup"/><path d="M345.664 49.949v4.545h.66c.22 0 .464-.031.734-.092.268-.061.512-.177.732-.347.22-.172.404-.404.55-.697.147-.294.22-.672.22-1.137 0-.489-.067-.879-.202-1.173-.134-.293-.305-.525-.512-.697-.209-.17-.429-.28-.66-.329-.233-.049-.447-.073-.642-.073h-.88zm.662 10.006h-.662v9.311h-7.625v-25.952h9.661c1.492 0 2.797.195 3.911.586 1.114.391 2.026.953 2.736 1.686.71.734 1.244 1.619 1.598 2.658.355 1.039.533 2.206.533 3.501 0 .879-.099 1.673-.294 2.382-.197.709-.443 1.338-.737 1.888-.294.55-.625 1.008-.993 1.375s-.736.636-1.103.806l4.153 11.07h-8.419l-2.759-9.311z" sketch:type="MSShapeGroup"/></g></svg>