<svg width="82" height="75" viewBox="0 0 82 75" xmlns="http://www.w3.org/2000/svg" xmlns:sketch="http://www.bohemiancoding.com/sketch/ns"><title>Imported Layers</title><desc>Created with Sketch.</desc><path d="M71.061 53.761c-.233 0-.458.031-.686.047l-21.272-36.923c1.361-1.77 2.182-3.976 2.182-6.382 0-5.8-4.703-10.503-10.503-10.503-5.801 0-10.503 4.703-10.503 10.503 0 2.508.887 4.804 2.355 6.609l-21.021 36.724c-.365-.041-.733-.075-1.11-.075-5.801 0-10.503 4.703-10.503 10.503 0 5.801 4.702 10.406 10.503 10.406 4.023 0 7.504-2.727 9.265-5.727h42.027c1.761 3 5.243 5.727 9.266 5.727 5.8 0 10.502-4.654 10.502-10.455 0-5.8-4.702-10.454-10.502-10.454zm-52.622 3.297l20.777-36.243c.512.08 1.031.163 1.566.163.63 0 1.239-.065 1.837-.175l20.781 35.963c-1.163 1.174-2.025 2.177-2.477 4.177h-40.283c-.415-2-1.177-2.808-2.201-3.885z" fill="#090705" sketch:type="MSShapeGroup"/></svg>