<svg width="188" height="189" viewBox="0 0 188 189" xmlns="http://www.w3.org/2000/svg" xmlns:sketch="http://www.bohemiancoding.com/sketch/ns"><title>Imported Layers</title><desc>Created with Sketch.</desc><g sketch:type="MSLayerGroup" fill="#D63B3B"><path d="M64.887 13.13l.222 39.725-52.297-52.297-12.054 12.054 52.297 52.297-39.735-.211 16.78 16.78 51.44-.18.127-51.388-16.78-16.78" sketch:type="MSShapeGroup"/><path d="M174.534 64.256l-39.725.211 52.297-52.297-12.043-12.054-52.307 52.307.211-39.735-16.78 16.78.18 51.44 51.388.127 16.78-16.78-.001.001" sketch:type="MSShapeGroup"/><path d="M122.965 175.193l-.211-39.725 52.297 52.307 12.054-12.054-52.307-52.307 39.735.211-16.78-16.78-51.44.18-.127 51.388 16.78 16.78h-.001" sketch:type="MSShapeGroup"/><path d="M13.33 124.081l39.725-.222-52.297 52.307 12.054 12.043 52.297-52.297-.211 39.735 16.78-16.78-.18-51.44-51.388-.127-16.78 16.78v.001" sketch:type="MSShapeGroup"/></g></svg>