<svg width="22" height="21" viewBox="0 0 22 21" xmlns="http://www.w3.org/2000/svg" xmlns:sketch="http://www.bohemiancoding.com/sketch/ns"><title>Slice 1</title><desc>Created with Sketch.</desc><path d="M20.928 13.946c-1.745-3.696-1.837-7.684-.445-11.503l.045-.177c.818-.938-.369-2.264-1.456-1.888-.355.019-.7.198-.926.611l-.049.082c-3.898 3.247-8.42 5.246-13.456 6.028-1.585.246-.912 2.655.665 2.411 3.314-.514 6.418-1.574 9.294-3.105-3.621 4.706-8.183 8.544-13.557 11.36-1.426.747-.163 2.905 1.262 2.159 5.864-3.073 10.854-7.364 14.741-12.605-.051 2.684.527 5.355 1.724 7.891.685 1.452 2.841.184 2.158-1.264z" sketch:type="MSShapeGroup" fill="#fff"/></svg>