<svg width="18" height="18" viewBox="0 0 18 18" xmlns="http://www.w3.org/2000/svg" xmlns:sketch="http://www.bohemiancoding.com/sketch/ns"><title>Slice 1</title><desc>Created with Sketch.</desc><path d="M16.525 15.576c-3.862-2.688-7.239-5.892-10.113-9.548 2.405 1.016 4.946 1.664 7.613 1.955 1.597.174 1.585-2.327 0-2.5-3.961-.432-7.596-1.839-10.881-4.082l-.094-.051-.003-.003c-.186-.345-.534-.599-1.046-.599-1.278 0-1.538 1.575-.785 2.223l.09.137c1.18 3.719 1.661 7.487 1.445 11.39-.089 1.608 2.411 1.603 2.5 0 .117-2.105.04-4.184-.229-6.237 2.95 3.603 6.369 6.776 10.243 9.472 1.321.923 2.572-1.243 1.26-2.157z" sketch:type="MSShapeGroup" fill="#fff"/></svg>