<svg width="23" height="24" viewBox="0 0 23 24" xmlns="http://www.w3.org/2000/svg" xmlns:sketch="http://www.bohemiancoding.com/sketch/ns"><title>Slice 1</title><desc>Created with Sketch.</desc><path d="M22.332 1.389c-.19-1-1.685-1.58-2.296-.447l-.127.22-.05.036c-2.394 2.109-5.376 2.906-8.515 2.486-1.59-.212-1.574 2.29 0 2.5 2.047.274 4.046.03 5.906-.634-4.268 6.456-9.728 11.925-16.548 15.85-1.394.802-.137 2.963 1.262 2.159 6.68-3.844 12.178-9.125 16.528-15.345.013 1.475.238 2.96.687 4.435.467 1.535 2.881.88 2.411-.665-.984-3.231-.785-6.534.688-9.584.174-.362.169-.712.054-1.011z" sketch:type="MSShapeGroup" fill="#fff"/></svg>