<svg width="16" height="34" viewBox="0 0 16 34" xmlns="http://www.w3.org/2000/svg" xmlns:sketch="http://www.bohemiancoding.com/sketch/ns"><title>Slice 1</title><desc>Created with Sketch.</desc><path d="M13.955 21.435c-1.99 1.511-3.487 3.402-4.453 5.561-1.761-8.416-1.777-16.948.475-25.414.414-1.556-1.997-2.22-2.411-.665-2.2 8.272-2.336 16.67-.832 24.938-1.209-1.244-2.607-2.312-4.192-3.14-1.424-.745-2.69 1.412-1.262 2.159 3.281 1.716 5.741 4.505 6.937 8.021.133.391.394.636.697.76.838.559 2.295-.103 1.929-1.337l-.074-.263.014-.085c.2-3.314 1.778-6.358 4.433-8.375 1.265-.962.021-3.134-1.261-2.16z" sketch:type="MSShapeGroup" fill="#fff"/></svg>