<svg width="21" height="21" viewBox="0 0 21 21" xmlns="http://www.w3.org/2000/svg" xmlns:sketch="http://www.bohemiancoding.com/sketch/ns"><title>Slice 1</title><desc>Created with Sketch.</desc><path d="M20.661 18.978c-.019-.355-.198-.7-.611-.927l-.082-.049c-3.247-3.898-5.246-8.42-6.027-13.456-.246-1.585-2.655-.912-2.411.665.514 3.313 1.574 6.418 3.105 9.294-4.706-3.621-8.544-8.183-11.36-13.557-.747-1.426-2.905-.163-2.159 1.262 3.073 5.864 7.364 10.854 12.605 14.741-2.684-.051-5.355.527-7.891 1.724-1.454.686-.187 2.842 1.262 2.159 3.696-1.745 7.684-1.837 11.504-.445l.177.045c.938.818 2.264-.369 1.888-1.456z" sketch:type="MSShapeGroup" fill="#fff"/></svg>