<svg width="20" height="21" viewBox="0 0 20 21" xmlns="http://www.w3.org/2000/svg" xmlns:sketch="http://www.bohemiancoding.com/sketch/ns"><title>Slice 1</title><desc>Created with Sketch.</desc><path d="M19.549 18.931c-1.456-4.137-2.195-8.357-2.207-12.744-.004-1.608-2.504-1.611-2.5 0 .005 1.9.144 3.775.404 5.628-3.437-4.757-7.883-8.701-13.143-11.551-1.415-.766-2.678 1.391-1.262 2.159 4.592 2.488 8.498 5.803 11.612 9.804-1.56-.556-3.24-.801-4.943-.658-1.592.133-1.606 2.634 0 2.5 3.46-.29 6.615 1.188 8.577 3.857.352.675.705 1.349 1.02 2.05.335.745 1.057.781 1.599.446l.064-.031c.591-.174 1.043-.71.779-1.46z" sketch:type="MSShapeGroup" fill="#fff"/></svg>