<svg width="19" height="24" viewBox="0 0 19 24" xmlns="http://www.w3.org/2000/svg" xmlns:sketch="http://www.bohemiancoding.com/sketch/ns"><title>Slice 1@2x</title><desc>Created with Sketch.</desc><path d="M18.811 13.089c-1.495-3.566-2.079-7.228-1.777-11.055l.047-.121c.105-.295.096-.556.014-.776l-.007-.038c-.049-.683-.646-.994-1.248-.942-.405-.021-.824.131-1.123.534-3.121 4.213-7.121 7.53-11.786 9.911-1.433.732-.17 2.889 1.262 2.159 2.89-1.475 5.5-3.31 7.846-5.453-2.711 5.277-6.326 9.991-10.783 14.058-1.191 1.087.581 2.851 1.768 1.768 4.897-4.469 8.795-9.7 11.666-15.559.299 2.105.868 4.171 1.711 6.18.612 1.46 3.032.818 2.41-.666z" sketch:type="MSShapeGroup" fill="#883535"/></svg>