<svg width="99" height="98" viewBox="0 0 99 98" xmlns="http://www.w3.org/2000/svg" xmlns:sketch="http://www.bohemiancoding.com/sketch/ns"><title>Imported Layers</title><desc>Created with Sketch.</desc><path d="M72.129 53.493l-5.295 5.294-7.699-7.698c3.691-5.272 5.865-11.68 5.865-18.589 0-17.921-14.58-32.5-32.5-32.5-17.921 0-32.5 14.579-32.5 32.5s14.579 32.5 32.5 32.5c7.409 0 14.244-2.498 19.717-6.689l7.546 7.547-5.312 5.313 26.411 26.412 17.678-17.678-26.411-26.412zm-39.629 1.507c-12.407 0-22.5-10.094-22.5-22.5s10.093-22.5 22.5-22.5c12.406 0 22.5 10.094 22.5 22.5s-10.094 22.5-22.5 22.5z" fill="#fff" sketch:type="MSShapeGroup"/></svg>