<svg width="1018" height="1018" viewBox="0 0 1018 1018" xmlns="http://www.w3.org/2000/svg" xmlns:sketch="http://www.bohemiancoding.com/sketch/ns"><title>Imported Layers</title><desc>Created with Sketch.</desc><path d="M508.733 0c-280.965 0-508.733 227.768-508.733 508.733 0 280.965 227.768 508.733 508.733 508.733 280.966 0 508.733-227.768 508.733-508.733 0-280.965-227.767-508.733-508.733-508.733zm265.594 372.514c8.665 192.741-135.08 407.635-389.502 407.635-77.389 0-149.421-22.687-210.062-61.568 72.699 8.567 145.264-11.596 202.878-56.751-59.963-1.1-110.577-40.72-128.012-95.162 21.473 4.102 42.602 2.899 61.883-2.347-65.901-13.244-111.394-72.615-109.913-136.104 18.475 10.27 39.608 16.433 62.072 17.145-61.031-40.785-78.303-121.374-42.409-182.958 67.587 82.905 168.565 137.464 282.45 143.182-19.987-85.723 45.042-168.269 133.491-168.269 39.416 0 75.029 16.642 100.03 43.276 31.213-6.144 60.536-17.549 87.018-33.251-10.231 32.002-31.961 58.853-60.251 75.816 27.715-3.306 54.127-10.674 78.704-21.579-18.368 27.48-41.595 51.615-68.377 70.935z" fill="#414042" sketch:type="MSShapeGroup"/></svg>