<svg width="492" height="491" viewBox="0 0 492 491" xmlns="http://www.w3.org/2000/svg" xmlns:sketch="http://www.bohemiancoding.com/sketch/ns"><title>Slice 1</title><desc>Created with Sketch.</desc><path d="M.677 491h490.645v-490.645h-490.645v490.645zm382.213-303.529c4.236 94.138-65.992 199.12-190.272 199.12-37.796 0-72.992-11.089-102.61-30.077 35.523 4.187 70.964-5.659 99.11-27.721-29.292-.54-54.02-19.887-62.541-46.48 10.5 1.995 20.82 1.407 30.224-1.161-32.186-6.46-54.413-35.457-53.677-66.482 9.028 5.021 19.348 8.03 30.322 8.39-29.815-19.937-38.254-59.303-20.722-89.379 33.02 40.495 82.347 67.153 137.969 69.933-9.764-41.868 21.997-82.183 65.207-82.183 19.25 0 36.651 8.128 48.868 21.13 15.243-2.993 29.57-8.57 42.506-16.24-5.005 15.635-15.619 28.752-29.439 37.044 13.542-1.619 26.446-5.217 38.45-10.549-8.979 13.427-20.313 25.219-33.397 34.656z" fill="#FFFDFB" sketch:type="MSShapeGroup"/></svg>