<svg xmlns="http://www.w3.org/2000/svg" preserveAspectRatio="xMidYMid" width="20" height="20" viewBox="0 0 20 20"><defs><style>.cls-2 { fill: #ffffff; }</style></defs><path d="M9.906 1.909c4.415 0 7.989 3.571 7.989 7.984 0 4.412-3.573 7.984-7.989 7.984s-7.99-3.571-7.99-7.984c0-4.412 3.573-7.984 7.99-7.984m0-1.924c-5.476 0-9.915 4.436-9.915 9.908 0 5.472 4.439 9.908 9.915 9.908 5.475 0 9.915-4.436 9.915-9.908 0-5.472-4.439-9.908-9.915-9.908zm1.435 15.274h-2.774v-6.588h2.774v6.588zm-1.387-7.95c-.844 0-1.527-.684-1.527-1.526 0-.843.683-1.527 1.527-1.527.843 0 1.527.684 1.527 1.527 0 .842-.684 1.526-1.527 1.526z" id="path-1" class="cls-2" fill-rule="evenodd"/></svg>