<?xml version="1.0" encoding="utf-8"?>
<!-- Generator: Adobe Illustrator 16.0.0, SVG Export Plug-In . SVG Version: 6.00 Build 0)  -->
<!DOCTYPE svg PUBLIC "-//W3C//DTD SVG 1.1//EN" "http://www.w3.org/Graphics/SVG/1.1/DTD/svg11.dtd">
<svg version="1.1" id="Layer_1" xmlns="http://www.w3.org/2000/svg" xmlns:xlink="http://www.w3.org/1999/xlink" x="0px" y="0px"
	 width="288.575px" height="57.946px" viewBox="0 0 288.575 57.946" enable-background="new 0 0 288.575 57.946"
	 xml:space="preserve">
<g>
	<path fill="#FFFFFF" d="M19.087,22.95v-0.87h0.273c0.236,0,0.457-0.017,0.663-0.051c0.206-0.034,0.384-0.103,0.536-0.208
		c0.151-0.104,0.273-0.254,0.364-0.45c0.091-0.196,0.137-0.456,0.137-0.779v-4.855h-6.736v4.855c0,0.323,0.045,0.583,0.137,0.779
		c0.091,0.195,0.212,0.345,0.364,0.45c0.151,0.105,0.332,0.174,0.541,0.208s0.428,0.051,0.657,0.051h0.273v0.87h-6.028v-0.87h0.263
		c0.236,0,0.457-0.017,0.663-0.051s0.386-0.103,0.541-0.208c0.155-0.104,0.276-0.254,0.364-0.45
		c0.087-0.196,0.131-0.456,0.131-0.779V10.438c0-0.303-0.045-0.548-0.136-0.733c-0.091-0.185-0.214-0.329-0.369-0.43
		c-0.155-0.101-0.336-0.167-0.542-0.197s-0.423-0.045-0.652-0.045h-0.263v-0.87h6.028v0.87h-0.273c-0.229,0-0.448,0.017-0.657,0.05
		c-0.209,0.034-0.39,0.103-0.541,0.208c-0.152,0.104-0.273,0.254-0.364,0.45c-0.091,0.196-0.137,0.455-0.137,0.779v4.188h6.736
		V10.52c0-0.324-0.045-0.583-0.137-0.779c-0.091-0.196-0.212-0.346-0.364-0.45c-0.152-0.104-0.331-0.173-0.536-0.208
		c-0.206-0.034-0.427-0.05-0.663-0.05h-0.273v-0.87h6.028v0.87h-0.263c-0.236,0-0.457,0.017-0.663,0.05
		c-0.206,0.034-0.386,0.103-0.541,0.208s-0.276,0.254-0.364,0.45c-0.087,0.196-0.131,0.455-0.131,0.779v10.175
		c0,0.303,0.045,0.548,0.137,0.733c0.091,0.186,0.214,0.326,0.369,0.42c0.155,0.095,0.335,0.157,0.541,0.187
		s0.423,0.046,0.652,0.046h0.263v0.87H19.087z"/>
	<path fill="#FFFFFF" d="M37.38,11.865c0,0.465-0.066,0.873-0.197,1.224c-0.131,0.351-0.312,0.658-0.541,0.92
		c-0.229,0.263-0.501,0.484-0.814,0.663s-0.652,0.329-1.017,0.45v0.081c0.472,0.081,0.904,0.219,1.295,0.415
		c0.391,0.196,0.727,0.45,1.006,0.764s0.497,0.685,0.652,1.113c0.155,0.428,0.232,0.915,0.232,1.461
		c0,1.335-0.438,2.335-1.314,2.999c-0.877,0.664-2.212,0.996-4.005,0.996h-6.17v-0.87h0.263c0.236,0,0.457-0.017,0.663-0.051
		s0.386-0.103,0.541-0.208c0.155-0.104,0.276-0.254,0.364-0.45c0.087-0.196,0.131-0.456,0.131-0.779V10.438
		c0-0.303-0.045-0.548-0.136-0.733c-0.091-0.185-0.214-0.329-0.369-0.43c-0.155-0.101-0.336-0.167-0.542-0.197
		s-0.423-0.045-0.652-0.045h-0.263v-0.87h5.553c1.793,0,3.129,0.298,4.005,0.896C36.941,9.655,37.38,10.59,37.38,11.865z
		 M30.562,14.687h1.437c0.607,0,1.112-0.054,1.517-0.162c0.404-0.108,0.728-0.275,0.971-0.501c0.243-0.226,0.417-0.517,0.521-0.875
		s0.157-0.786,0.157-1.285c0-0.506-0.057-0.929-0.172-1.27c-0.115-0.34-0.3-0.615-0.556-0.824s-0.588-0.357-0.996-0.445
		c-0.408-0.088-0.905-0.132-1.492-0.132h-1.386V14.687z M30.562,21.918h2.013c0.587,0,1.083-0.054,1.487-0.162
		c0.405-0.108,0.735-0.282,0.991-0.521s0.442-0.551,0.557-0.936c0.114-0.384,0.172-0.853,0.172-1.406
		c0-0.539-0.051-1.008-0.152-1.406c-0.101-0.397-0.275-0.728-0.521-0.991c-0.246-0.263-0.571-0.458-0.976-0.586
		c-0.404-0.128-0.91-0.192-1.517-0.192h-2.053V21.918z"/>
	<path fill="#FFFFFF" d="M53.265,15.536c0,1.14-0.142,2.178-0.425,3.115c-0.283,0.938-0.701,1.74-1.254,2.407
		c-0.553,0.668-1.234,1.184-2.043,1.548c-0.81,0.364-1.737,0.546-2.782,0.546c-1.099,0-2.057-0.182-2.873-0.546
		c-0.816-0.364-1.494-0.88-2.033-1.548c-0.54-0.667-0.944-1.472-1.213-2.412c-0.27-0.94-0.405-1.984-0.405-3.13
		s0.135-2.187,0.405-3.121c0.27-0.934,0.674-1.731,1.213-2.392c0.54-0.661,1.221-1.171,2.043-1.532
		c0.822-0.36,1.783-0.541,2.882-0.541c1.045,0,1.969,0.181,2.771,0.541c0.802,0.361,1.48,0.874,2.033,1.538
		c0.553,0.664,0.971,1.463,1.254,2.397C53.123,13.34,53.265,14.383,53.265,15.536z M42.533,15.536c0,1.025,0.076,1.94,0.228,2.746
		c0.152,0.806,0.396,1.487,0.733,2.043c0.337,0.556,0.774,0.981,1.31,1.274c0.536,0.293,1.188,0.44,1.957,0.44
		s1.421-0.147,1.957-0.44c0.536-0.293,0.971-0.718,1.305-1.274c0.334-0.557,0.575-1.237,0.724-2.043
		c0.148-0.806,0.222-1.721,0.222-2.746c0-1.025-0.074-1.94-0.222-2.746c-0.148-0.806-0.39-1.485-0.724-2.038
		c-0.333-0.553-0.765-0.974-1.294-1.264s-1.178-0.435-1.947-0.435c-0.769,0-1.422,0.145-1.962,0.435s-0.979,0.711-1.32,1.264
		c-0.341,0.553-0.587,1.232-0.739,2.038C42.609,13.596,42.533,14.511,42.533,15.536z"/>
	<path fill="#FFFFFF" d="M54.757,18.085v-1.558h5.391v1.558H54.757z"/>
	<path fill="#FFFFFF" d="M66.667,22.95l-4.471-12.825c-0.074-0.216-0.155-0.395-0.243-0.536c-0.088-0.142-0.189-0.253-0.304-0.333
		c-0.115-0.081-0.246-0.138-0.395-0.172c-0.148-0.034-0.323-0.05-0.526-0.05h-0.273v-0.87h5.694v0.87h-0.475
		c-0.418,0-0.73,0.079-0.936,0.238c-0.206,0.158-0.309,0.41-0.309,0.753c0,0.115,0.015,0.232,0.045,0.354
		c0.03,0.121,0.072,0.26,0.126,0.415l2.276,6.726c0.209,0.614,0.388,1.209,0.536,1.785c0.148,0.577,0.279,1.115,0.394,1.613
		c0.108-0.499,0.236-1.028,0.385-1.588c0.148-0.56,0.337-1.163,0.566-1.811l2.286-6.584c0.054-0.168,0.098-0.33,0.131-0.485
		s0.051-0.29,0.051-0.405c0-0.357-0.113-0.615-0.339-0.773c-0.226-0.159-0.568-0.238-1.027-0.238h-0.475v-0.87h5.047v0.87h-0.394
		c-0.203,0-0.376,0.02-0.521,0.061s-0.277,0.12-0.395,0.238c-0.118,0.118-0.228,0.282-0.329,0.491s-0.209,0.482-0.324,0.819
		l-4.289,12.31H66.667z"/>
	<path fill="#FFFFFF" d="M80.192,22.081c0.229,0,0.447-0.016,0.652-0.046s0.386-0.092,0.541-0.187
		c0.155-0.094,0.278-0.234,0.369-0.42c0.091-0.185,0.137-0.43,0.137-0.733V14.13c0-0.303-0.045-0.548-0.137-0.733
		c-0.091-0.186-0.214-0.329-0.369-0.43s-0.335-0.168-0.541-0.203c-0.206-0.033-0.423-0.05-0.652-0.05h-0.061v-0.87h3.702v8.75
		c0,0.323,0.045,0.583,0.137,0.779c0.091,0.195,0.212,0.345,0.364,0.45c0.152,0.105,0.332,0.174,0.542,0.208
		c0.209,0.034,0.428,0.051,0.657,0.051h0.273v0.87h-5.886v-0.87H80.192z M81.598,8.486c0-0.243,0.03-0.445,0.091-0.607
		c0.061-0.162,0.145-0.293,0.252-0.394c0.108-0.102,0.233-0.172,0.375-0.212c0.142-0.041,0.296-0.061,0.465-0.061
		c0.162,0,0.313,0.021,0.455,0.061c0.142,0.04,0.265,0.111,0.369,0.212c0.104,0.101,0.188,0.232,0.253,0.394
		c0.064,0.162,0.096,0.364,0.096,0.607s-0.032,0.445-0.096,0.607c-0.064,0.162-0.148,0.293-0.253,0.395s-0.228,0.174-0.369,0.217
		c-0.142,0.044-0.293,0.066-0.455,0.066c-0.169,0-0.324-0.022-0.465-0.066c-0.142-0.043-0.267-0.116-0.375-0.217
		s-0.192-0.232-0.252-0.395C81.628,8.932,81.598,8.729,81.598,8.486z"/>
	<path fill="#FFFFFF" d="M92.031,22.081v0.87h-5.573v-0.87h0.172c0.236,0,0.457-0.017,0.663-0.051
		c0.206-0.034,0.384-0.103,0.536-0.208c0.151-0.104,0.273-0.254,0.364-0.45c0.091-0.196,0.137-0.456,0.137-0.779V14.13
		c0-0.303-0.045-0.548-0.137-0.733c-0.091-0.186-0.214-0.329-0.369-0.43s-0.335-0.168-0.541-0.203
		c-0.206-0.033-0.423-0.05-0.652-0.05H86.57v-0.87h3.348l0.273,1.679h0.102c0.215-0.384,0.443-0.699,0.683-0.946
		c0.239-0.246,0.492-0.438,0.758-0.576c0.267-0.138,0.55-0.233,0.85-0.283c0.3-0.051,0.615-0.076,0.946-0.076
		c0.546,0,1.033,0.08,1.461,0.238c0.428,0.159,0.792,0.401,1.093,0.728c0.3,0.327,0.529,0.747,0.688,1.259
		c0.158,0.513,0.238,1.123,0.238,1.831v4.896c0,0.323,0.039,0.583,0.116,0.779c0.078,0.195,0.187,0.345,0.329,0.45
		c0.142,0.105,0.31,0.174,0.506,0.208c0.195,0.034,0.408,0.051,0.637,0.051h0.071v0.87h-3.611v-7.151
		c0-0.452-0.041-0.853-0.122-1.204c-0.081-0.351-0.21-0.647-0.389-0.89s-0.413-0.426-0.703-0.551
		c-0.29-0.125-0.644-0.187-1.062-0.187c-0.472,0-0.868,0.091-1.188,0.273s-0.578,0.428-0.773,0.738
		c-0.196,0.311-0.335,0.667-0.42,1.072s-0.126,0.83-0.126,1.274v4.37c0,0.303,0.045,0.548,0.137,0.733
		c0.091,0.186,0.214,0.326,0.369,0.42c0.155,0.095,0.335,0.157,0.541,0.187s0.423,0.046,0.652,0.046H92.031z"/>
	<path fill="#FFFFFF" d="M114.709,20.674c0,0.304,0.045,0.548,0.137,0.733c0.091,0.186,0.214,0.329,0.369,0.43
		c0.155,0.102,0.335,0.167,0.541,0.197s0.423,0.046,0.652,0.046h0.172v0.87h-3.51l-0.222-1.861h-0.081
		c-0.155,0.317-0.332,0.602-0.531,0.854c-0.199,0.253-0.427,0.469-0.683,0.647s-0.546,0.317-0.87,0.415s-0.688,0.146-1.092,0.146
		c-0.681,0-1.285-0.113-1.811-0.339c-0.526-0.226-0.968-0.573-1.325-1.042s-0.627-1.063-0.809-1.785s-0.273-1.578-0.273-2.569
		c0-0.998,0.091-1.861,0.273-2.589c0.182-0.728,0.452-1.328,0.809-1.8c0.357-0.472,0.799-0.821,1.325-1.047
		c0.526-0.226,1.129-0.339,1.811-0.339c0.397,0,0.758,0.044,1.082,0.131c0.324,0.088,0.615,0.212,0.875,0.375
		c0.259,0.162,0.491,0.354,0.693,0.577c0.202,0.222,0.377,0.469,0.526,0.738h0.122c-0.021-0.337-0.041-0.654-0.061-0.951
		c-0.014-0.256-0.027-0.511-0.041-0.764c-0.013-0.253-0.02-0.44-0.02-0.562V9.488c0-0.303-0.045-0.548-0.137-0.733
		c-0.091-0.185-0.214-0.329-0.369-0.43s-0.335-0.167-0.541-0.197s-0.423-0.045-0.652-0.045h-0.172v-0.87h3.813V20.674z
		 M109.945,21.828c0.539,0,0.989-0.089,1.35-0.268s0.651-0.45,0.87-0.814c0.219-0.364,0.374-0.822,0.465-1.375
		c0.091-0.553,0.137-1.204,0.137-1.952c0-0.721-0.045-1.358-0.137-1.912c-0.091-0.553-0.246-1.017-0.465-1.391
		c-0.219-0.375-0.511-0.659-0.875-0.854c-0.364-0.196-0.819-0.293-1.366-0.293c-0.452,0-0.839,0.098-1.163,0.293
		c-0.324,0.195-0.588,0.482-0.794,0.859c-0.206,0.378-0.356,0.845-0.45,1.401s-0.142,1.195-0.142,1.917
		c0,1.47,0.199,2.569,0.597,3.297C108.371,21.463,109.028,21.828,109.945,21.828z"/>
	<path fill="#FFFFFF" d="M122.705,23.152c-0.749,0-1.421-0.126-2.018-0.379c-0.597-0.252-1.101-0.622-1.512-1.107
		c-0.412-0.485-0.727-1.081-0.946-1.785s-0.329-1.505-0.329-2.402c0-1.935,0.397-3.392,1.193-4.369
		c0.795-0.978,1.928-1.467,3.398-1.467c0.667,0,1.268,0.104,1.8,0.313c0.533,0.209,0.984,0.521,1.355,0.936
		c0.371,0.415,0.656,0.931,0.854,1.548c0.199,0.617,0.298,1.333,0.298,2.149v0.951h-6.898c0.014,0.755,0.089,1.404,0.228,1.947
		c0.138,0.543,0.337,0.99,0.597,1.34c0.26,0.351,0.578,0.608,0.956,0.774c0.377,0.165,0.812,0.248,1.305,0.248
		c0.357,0,0.689-0.041,0.997-0.121c0.307-0.081,0.584-0.189,0.834-0.324s0.471-0.289,0.663-0.46c0.192-0.172,0.349-0.352,0.47-0.541
		c0.095,0.041,0.184,0.125,0.268,0.253c0.084,0.128,0.126,0.28,0.126,0.455c0,0.209-0.074,0.433-0.222,0.672
		c-0.148,0.24-0.375,0.46-0.678,0.663c-0.304,0.203-0.683,0.371-1.138,0.506C123.853,23.085,123.319,23.152,122.705,23.152z
		 M122.452,12.755c-0.769,0-1.36,0.312-1.775,0.936s-0.659,1.536-0.733,2.736h4.764c0-0.546-0.041-1.045-0.122-1.497
		c-0.081-0.452-0.209-0.839-0.384-1.163s-0.406-0.573-0.693-0.749C123.223,12.842,122.87,12.755,122.452,12.755z"/>
	<path fill="#FFFFFF" d="M143.643,17.377c0,1.949-0.413,3.398-1.239,4.35c-0.826,0.951-2.035,1.426-3.626,1.426
		c-0.749,0-1.419-0.118-2.013-0.354c-0.593-0.236-1.098-0.593-1.512-1.072c-0.415-0.479-0.731-1.081-0.951-1.806
		c-0.219-0.725-0.329-1.573-0.329-2.544c0-1.935,0.41-3.375,1.229-4.319c0.819-0.944,2.031-1.416,3.636-1.416
		c0.749,0,1.419,0.116,2.013,0.349c0.593,0.232,1.097,0.586,1.512,1.062c0.415,0.475,0.732,1.072,0.951,1.79
		C143.533,15.562,143.643,16.406,143.643,17.377z M135.976,17.377c0,0.769,0.051,1.446,0.152,2.033
		c0.101,0.586,0.265,1.077,0.491,1.472c0.226,0.395,0.519,0.693,0.88,0.895c0.36,0.202,0.8,0.304,1.32,0.304
		c0.519,0,0.958-0.102,1.315-0.304s0.647-0.5,0.87-0.895c0.223-0.395,0.383-0.885,0.48-1.472c0.098-0.587,0.147-1.264,0.147-2.033
		c0-0.769-0.051-1.443-0.152-2.023c-0.101-0.58-0.263-1.063-0.485-1.451c-0.223-0.388-0.515-0.679-0.875-0.875
		c-0.361-0.195-0.801-0.293-1.32-0.293c-0.52,0-0.958,0.098-1.315,0.293c-0.357,0.196-0.647,0.487-0.87,0.875
		c-0.222,0.388-0.384,0.872-0.485,1.451C136.027,15.934,135.976,16.608,135.976,17.377z"/>
	<path fill="#FFFFFF" d="M155.492,20.695c0,0.303,0.046,0.548,0.137,0.733c0.092,0.186,0.214,0.326,0.369,0.42
		c0.155,0.095,0.336,0.157,0.541,0.187c0.206,0.03,0.424,0.046,0.652,0.046h0.062v0.87h-3.287l-0.273-1.679h-0.102
		c-0.209,0.391-0.439,0.708-0.692,0.951c-0.253,0.243-0.521,0.433-0.805,0.571s-0.579,0.232-0.89,0.283s-0.634,0.076-0.971,0.076
		c-0.547,0-1.032-0.078-1.457-0.232c-0.425-0.155-0.782-0.398-1.072-0.729c-0.29-0.33-0.511-0.751-0.662-1.264
		c-0.151-0.512-0.228-1.123-0.228-1.831V14.13c0-0.303-0.046-0.548-0.137-0.733s-0.214-0.329-0.369-0.43s-0.335-0.168-0.541-0.203
		c-0.206-0.033-0.423-0.05-0.652-0.05h-0.061v-0.87h3.712v7.151c0,0.452,0.035,0.853,0.106,1.204c0.07,0.351,0.188,0.647,0.354,0.89
		c0.165,0.243,0.388,0.426,0.668,0.551c0.279,0.125,0.629,0.188,1.047,0.188c0.458,0,0.851-0.081,1.178-0.243
		c0.327-0.162,0.597-0.39,0.81-0.683c0.212-0.293,0.369-0.646,0.471-1.057c0.101-0.412,0.151-0.867,0.151-1.366v-4.268
		c0-0.324-0.046-0.585-0.137-0.784c-0.091-0.199-0.212-0.351-0.364-0.455c-0.151-0.104-0.33-0.173-0.536-0.208
		c-0.205-0.033-0.427-0.05-0.662-0.05h-0.061v-0.87h3.701V20.695z"/>
	<path fill="#FFFFFF" d="M168.02,20.674c0,0.304,0.046,0.548,0.137,0.733s0.214,0.329,0.369,0.43
		c0.155,0.102,0.335,0.167,0.541,0.197s0.423,0.046,0.652,0.046h0.172v0.87h-3.51l-0.223-1.861h-0.08
		c-0.155,0.317-0.333,0.602-0.531,0.854c-0.199,0.253-0.427,0.469-0.683,0.647c-0.257,0.179-0.547,0.317-0.87,0.415
		c-0.324,0.098-0.688,0.146-1.093,0.146c-0.681,0-1.284-0.113-1.811-0.339c-0.525-0.226-0.968-0.573-1.324-1.042
		c-0.357-0.469-0.628-1.063-0.81-1.785s-0.273-1.578-0.273-2.569c0-0.998,0.092-1.861,0.273-2.589c0.182-0.728,0.452-1.328,0.81-1.8
		c0.356-0.472,0.799-0.821,1.324-1.047c0.526-0.226,1.13-0.339,1.811-0.339c0.398,0,0.759,0.044,1.083,0.131
		c0.323,0.088,0.615,0.212,0.874,0.375c0.26,0.162,0.491,0.354,0.693,0.577c0.202,0.222,0.378,0.469,0.526,0.738h0.121
		c-0.021-0.337-0.041-0.654-0.061-0.951c-0.014-0.256-0.027-0.511-0.041-0.764s-0.02-0.44-0.02-0.562V9.488
		c0-0.303-0.046-0.548-0.137-0.733c-0.092-0.185-0.215-0.329-0.369-0.43c-0.155-0.101-0.336-0.167-0.541-0.197
		c-0.206-0.03-0.424-0.045-0.652-0.045h-0.173v-0.87h3.813V20.674z M163.256,21.828c0.539,0,0.989-0.089,1.351-0.268
		c0.36-0.179,0.65-0.45,0.869-0.814c0.22-0.364,0.374-0.822,0.466-1.375c0.091-0.553,0.137-1.204,0.137-1.952
		c0-0.721-0.046-1.358-0.137-1.912c-0.092-0.553-0.246-1.017-0.466-1.391c-0.219-0.375-0.511-0.659-0.875-0.854
		c-0.364-0.196-0.819-0.293-1.365-0.293c-0.452,0-0.84,0.098-1.163,0.293c-0.323,0.195-0.588,0.482-0.794,0.859
		c-0.206,0.378-0.355,0.845-0.45,1.401s-0.142,1.195-0.142,1.917c0,1.47,0.199,2.569,0.597,3.297
		C161.682,21.463,162.339,21.828,163.256,21.828z"/>
	<path fill="#FFFFFF" d="M176.016,23.152c-0.748,0-1.421-0.126-2.018-0.379c-0.597-0.252-1.102-0.622-1.513-1.107
		c-0.411-0.485-0.727-1.081-0.945-1.785s-0.329-1.505-0.329-2.402c0-1.935,0.398-3.392,1.194-4.369
		c0.795-0.978,1.928-1.467,3.398-1.467c0.667,0,1.268,0.104,1.8,0.313c0.533,0.209,0.984,0.521,1.355,0.936
		c0.371,0.415,0.655,0.931,0.854,1.548c0.199,0.617,0.299,1.333,0.299,2.149v0.951h-6.898c0.014,0.755,0.09,1.404,0.228,1.947
		c0.139,0.543,0.337,0.99,0.597,1.34s0.578,0.608,0.956,0.774c0.378,0.165,0.812,0.248,1.305,0.248c0.357,0,0.689-0.041,0.996-0.121
		c0.307-0.081,0.585-0.189,0.835-0.324c0.249-0.135,0.47-0.289,0.662-0.46s0.349-0.352,0.471-0.541
		c0.094,0.041,0.184,0.125,0.268,0.253s0.127,0.28,0.127,0.455c0,0.209-0.074,0.433-0.223,0.672c-0.148,0.24-0.374,0.46-0.678,0.663
		c-0.304,0.203-0.683,0.371-1.138,0.506S176.629,23.152,176.016,23.152z M175.763,12.755c-0.769,0-1.36,0.312-1.775,0.936
		c-0.414,0.624-0.659,1.536-0.732,2.736h4.764c0-0.546-0.041-1.045-0.121-1.497c-0.081-0.452-0.21-0.839-0.385-1.163
		c-0.176-0.324-0.406-0.573-0.693-0.749C176.533,12.842,176.181,12.755,175.763,12.755z"/>
	<path fill="#FFFFFF" d="M187.612,22.95h-5.978v-0.87h0.061c0.236,0,0.457-0.017,0.663-0.051c0.205-0.034,0.384-0.103,0.536-0.208
		c0.151-0.104,0.272-0.254,0.364-0.45c0.091-0.196,0.136-0.456,0.136-0.779V14.13c0-0.303-0.045-0.548-0.136-0.733
		c-0.092-0.186-0.215-0.329-0.369-0.43c-0.155-0.101-0.336-0.168-0.542-0.203c-0.205-0.033-0.423-0.05-0.652-0.05h-0.061v-0.87
		h3.187l0.395,2.054h0.101c0.135-0.311,0.273-0.602,0.415-0.875c0.142-0.273,0.315-0.513,0.521-0.718
		c0.206-0.206,0.461-0.368,0.764-0.485c0.304-0.118,0.685-0.177,1.144-0.177c0.755,0,1.316,0.131,1.684,0.395
		s0.552,0.634,0.552,1.113c0,0.216-0.036,0.415-0.106,0.597c-0.071,0.182-0.184,0.339-0.339,0.47s-0.354,0.232-0.597,0.303
		c-0.243,0.071-0.54,0.106-0.891,0.106c0-0.573-0.08-0.986-0.242-1.239c-0.162-0.252-0.445-0.379-0.85-0.379
		c-0.257,0-0.485,0.072-0.688,0.217c-0.203,0.145-0.38,0.337-0.531,0.577c-0.152,0.239-0.28,0.514-0.385,0.824
		s-0.188,0.629-0.253,0.956c-0.063,0.327-0.109,0.653-0.137,0.976c-0.026,0.324-0.04,0.617-0.04,0.88v3.257
		c0,0.303,0.046,0.548,0.137,0.733c0.091,0.186,0.214,0.326,0.369,0.42c0.155,0.095,0.335,0.157,0.541,0.187
		s0.423,0.046,0.652,0.046h0.576V22.95z"/>
	<path fill="#FFFFFF" d="M196.447,23.152c-0.748,0-1.421-0.126-2.018-0.379c-0.597-0.252-1.102-0.622-1.513-1.107
		c-0.411-0.485-0.727-1.081-0.945-1.785s-0.329-1.505-0.329-2.402c0-1.935,0.398-3.392,1.194-4.369
		c0.795-0.978,1.928-1.467,3.398-1.467c0.667,0,1.268,0.104,1.8,0.313c0.533,0.209,0.984,0.521,1.355,0.936
		c0.371,0.415,0.655,0.931,0.854,1.548c0.199,0.617,0.299,1.333,0.299,2.149v0.951h-6.898c0.014,0.755,0.09,1.404,0.228,1.947
		c0.139,0.543,0.337,0.99,0.597,1.34s0.578,0.608,0.956,0.774c0.378,0.165,0.812,0.248,1.305,0.248c0.357,0,0.689-0.041,0.996-0.121
		c0.307-0.081,0.585-0.189,0.835-0.324c0.249-0.135,0.47-0.289,0.662-0.46s0.349-0.352,0.471-0.541
		c0.094,0.041,0.184,0.125,0.268,0.253s0.127,0.28,0.127,0.455c0,0.209-0.074,0.433-0.223,0.672c-0.148,0.24-0.374,0.46-0.678,0.663
		c-0.304,0.203-0.683,0.371-1.138,0.506S197.061,23.152,196.447,23.152z M196.194,12.755c-0.769,0-1.36,0.312-1.775,0.936
		c-0.414,0.624-0.659,1.536-0.732,2.736h4.764c0-0.546-0.041-1.045-0.121-1.497c-0.081-0.452-0.21-0.839-0.385-1.163
		c-0.176-0.324-0.406-0.573-0.693-0.749C196.965,12.842,196.612,12.755,196.194,12.755z"/>
	<path fill="#FFFFFF" d="M207.528,22.081v0.87h-5.573v-0.87h0.172c0.236,0,0.457-0.017,0.663-0.051
		c0.205-0.034,0.384-0.103,0.536-0.208c0.151-0.104,0.272-0.254,0.364-0.45c0.091-0.196,0.136-0.456,0.136-0.779V14.13
		c0-0.303-0.045-0.548-0.136-0.733c-0.092-0.186-0.215-0.329-0.369-0.43c-0.155-0.101-0.336-0.168-0.542-0.203
		c-0.205-0.033-0.423-0.05-0.652-0.05h-0.061v-0.87h3.349l0.272,1.679h0.102c0.216-0.384,0.443-0.699,0.683-0.946
		c0.239-0.246,0.492-0.438,0.759-0.576c0.266-0.138,0.549-0.233,0.85-0.283c0.3-0.051,0.615-0.076,0.945-0.076
		c0.546,0,1.033,0.08,1.462,0.238c0.428,0.159,0.792,0.401,1.092,0.728c0.3,0.327,0.529,0.747,0.688,1.259
		c0.158,0.513,0.237,1.123,0.237,1.831v4.896c0,0.323,0.039,0.583,0.116,0.779c0.077,0.195,0.188,0.345,0.329,0.45
		c0.142,0.105,0.31,0.174,0.506,0.208c0.195,0.034,0.407,0.051,0.637,0.051h0.071v0.87h-3.611v-7.151
		c0-0.452-0.04-0.853-0.121-1.204s-0.211-0.647-0.39-0.89s-0.413-0.426-0.703-0.551c-0.29-0.125-0.644-0.187-1.062-0.187
		c-0.473,0-0.868,0.091-1.188,0.273s-0.578,0.428-0.774,0.738c-0.195,0.311-0.335,0.667-0.419,1.072
		c-0.085,0.405-0.127,0.83-0.127,1.274v4.37c0,0.303,0.046,0.548,0.137,0.733c0.091,0.186,0.214,0.326,0.369,0.42
		c0.155,0.095,0.335,0.157,0.541,0.187s0.423,0.046,0.652,0.046H207.528z"/>
	<path fill="#FFFFFF" d="M221.573,21.767c0.242,0,0.443-0.047,0.602-0.142c0.158-0.094,0.29-0.219,0.395-0.374
		s0.188-0.335,0.253-0.541c0.063-0.206,0.119-0.42,0.167-0.643l0.101-0.475h0.87l-0.102,3.358h-8.455v-0.83l6.008-9.093h-3.236
		c-0.271,0-0.492,0.036-0.668,0.106s-0.318,0.177-0.43,0.318s-0.202,0.317-0.273,0.526c-0.07,0.209-0.144,0.452-0.217,0.729
		l-0.021,0.081h-0.87l0.202-2.943h7.94v0.85l-6.028,9.073H221.573z"/>
	<path fill="#FFFFFF" d="M235.729,17.377c0,1.949-0.413,3.398-1.239,4.35c-0.826,0.951-2.034,1.426-3.626,1.426
		c-0.748,0-1.42-0.118-2.013-0.354c-0.594-0.236-1.098-0.593-1.512-1.072c-0.415-0.479-0.732-1.081-0.951-1.806
		c-0.219-0.725-0.329-1.573-0.329-2.544c0-1.935,0.41-3.375,1.229-4.319c0.819-0.944,2.031-1.416,3.636-1.416
		c0.749,0,1.42,0.116,2.013,0.349c0.594,0.232,1.098,0.586,1.513,1.062c0.414,0.475,0.731,1.072,0.95,1.79
		C235.619,15.562,235.729,16.406,235.729,17.377z M228.062,17.377c0,0.769,0.051,1.446,0.151,2.033
		c0.102,0.586,0.265,1.077,0.491,1.472c0.226,0.395,0.519,0.693,0.88,0.895c0.36,0.202,0.801,0.304,1.319,0.304
		c0.52,0,0.958-0.102,1.315-0.304s0.647-0.5,0.87-0.895s0.382-0.885,0.48-1.472c0.098-0.587,0.146-1.264,0.146-2.033
		c0-0.769-0.051-1.443-0.152-2.023c-0.101-0.58-0.263-1.063-0.485-1.451s-0.514-0.679-0.875-0.875
		c-0.36-0.195-0.801-0.293-1.319-0.293c-0.52,0-0.958,0.098-1.315,0.293c-0.357,0.196-0.647,0.487-0.869,0.875
		c-0.223,0.388-0.385,0.872-0.486,1.451C228.112,15.934,228.062,16.608,228.062,17.377z"/>
	<path fill="#FFFFFF" d="M243.329,22.95h-5.978v-0.87h0.061c0.236,0,0.457-0.017,0.663-0.051c0.205-0.034,0.384-0.103,0.536-0.208
		c0.151-0.104,0.272-0.254,0.364-0.45c0.091-0.196,0.136-0.456,0.136-0.779V14.13c0-0.303-0.045-0.548-0.136-0.733
		c-0.092-0.186-0.215-0.329-0.369-0.43c-0.155-0.101-0.336-0.168-0.542-0.203c-0.205-0.033-0.423-0.05-0.652-0.05h-0.061v-0.87
		h3.187l0.395,2.054h0.101c0.135-0.311,0.273-0.602,0.415-0.875c0.142-0.273,0.315-0.513,0.521-0.718
		c0.206-0.206,0.461-0.368,0.764-0.485c0.304-0.118,0.685-0.177,1.144-0.177c0.755,0,1.316,0.131,1.684,0.395
		s0.552,0.634,0.552,1.113c0,0.216-0.036,0.415-0.106,0.597c-0.071,0.182-0.184,0.339-0.339,0.47s-0.354,0.232-0.597,0.303
		c-0.243,0.071-0.54,0.106-0.891,0.106c0-0.573-0.08-0.986-0.242-1.239c-0.162-0.252-0.445-0.379-0.85-0.379
		c-0.257,0-0.485,0.072-0.688,0.217c-0.203,0.145-0.38,0.337-0.531,0.577c-0.152,0.239-0.28,0.514-0.385,0.824
		s-0.188,0.629-0.253,0.956c-0.063,0.327-0.109,0.653-0.137,0.976c-0.026,0.324-0.04,0.617-0.04,0.88v3.257
		c0,0.303,0.046,0.548,0.137,0.733c0.091,0.186,0.214,0.326,0.369,0.42c0.155,0.095,0.335,0.157,0.541,0.187
		s0.423,0.046,0.652,0.046h0.576V22.95z"/>
	<path fill="#FFFFFF" d="M257.11,12.279c0,0.148-0.022,0.289-0.066,0.42s-0.109,0.246-0.197,0.344
		c-0.087,0.098-0.2,0.175-0.338,0.233c-0.139,0.057-0.303,0.086-0.491,0.086c0-0.081-0.01-0.162-0.03-0.243
		c-0.021-0.081-0.056-0.157-0.106-0.228c-0.05-0.071-0.119-0.128-0.207-0.172c-0.088-0.043-0.202-0.065-0.344-0.065
		c-0.176,0-0.334,0.02-0.476,0.061s-0.28,0.104-0.415,0.192c0.236,0.29,0.431,0.632,0.582,1.026s0.228,0.889,0.228,1.482
		c0,0.512-0.077,0.986-0.232,1.421s-0.387,0.811-0.693,1.128s-0.694,0.565-1.163,0.743c-0.469,0.179-1.017,0.268-1.644,0.268
		c-0.081,0-0.172-0.001-0.272-0.005c-0.102-0.003-0.203-0.007-0.304-0.01c-0.102-0.003-0.196-0.01-0.283-0.02
		c-0.088-0.01-0.158-0.019-0.213-0.025c-0.135,0.067-0.263,0.142-0.384,0.223c-0.122,0.081-0.228,0.172-0.318,0.273
		c-0.092,0.101-0.164,0.216-0.218,0.344c-0.055,0.128-0.081,0.27-0.081,0.425c0,0.169,0.032,0.304,0.096,0.405
		c0.064,0.101,0.153,0.18,0.269,0.238c0.114,0.057,0.251,0.094,0.409,0.111c0.158,0.017,0.329,0.025,0.511,0.025h2.347
		c0.62,0,1.146,0.078,1.578,0.233s0.784,0.369,1.057,0.642c0.273,0.273,0.473,0.6,0.597,0.981c0.125,0.381,0.188,0.794,0.188,1.239
		c0,0.593-0.109,1.129-0.329,1.608c-0.219,0.479-0.555,0.885-1.006,1.219c-0.452,0.333-1.023,0.591-1.715,0.773
		s-1.505,0.273-2.442,0.273c-1.443,0-2.522-0.267-3.236-0.799c-0.715-0.533-1.072-1.274-1.072-2.225c0-0.405,0.07-0.759,0.212-1.062
		c0.142-0.304,0.332-0.563,0.571-0.779s0.515-0.391,0.825-0.526c0.31-0.135,0.637-0.233,0.98-0.293
		c-0.142-0.061-0.279-0.142-0.414-0.243c-0.136-0.101-0.257-0.223-0.364-0.364c-0.108-0.142-0.196-0.303-0.264-0.485
		s-0.101-0.384-0.101-0.607c0-0.411,0.107-0.767,0.323-1.067c0.216-0.3,0.56-0.592,1.032-0.875
		c-0.297-0.122-0.562-0.289-0.794-0.501c-0.233-0.212-0.429-0.455-0.587-0.728s-0.28-0.571-0.364-0.895s-0.126-0.658-0.126-1.001
		c0-0.6,0.081-1.136,0.242-1.608c0.162-0.472,0.405-0.873,0.729-1.204c0.323-0.33,0.729-0.583,1.214-0.758s1.055-0.263,1.709-0.263
		c0.25,0,0.496,0.019,0.738,0.056c0.243,0.037,0.467,0.088,0.673,0.152s0.391,0.136,0.557,0.217
		c0.165,0.081,0.298,0.166,0.399,0.253c0.101-0.108,0.219-0.228,0.354-0.359c0.135-0.132,0.287-0.253,0.455-0.364
		c0.169-0.111,0.353-0.204,0.552-0.278c0.198-0.074,0.413-0.111,0.643-0.111c0.208,0,0.389,0.029,0.541,0.086
		c0.151,0.057,0.277,0.135,0.379,0.232s0.177,0.212,0.228,0.344C257.085,12.001,257.11,12.138,257.11,12.279z M248.371,24.771
		c0,0.303,0.041,0.586,0.121,0.85c0.081,0.263,0.223,0.489,0.425,0.677c0.203,0.189,0.476,0.337,0.819,0.445
		s0.779,0.162,1.305,0.162c0.742,0,1.354-0.062,1.836-0.187s0.865-0.298,1.148-0.521c0.283-0.222,0.481-0.487,0.597-0.794
		c0.114-0.307,0.172-0.642,0.172-1.006c0-0.317-0.046-0.578-0.137-0.784c-0.091-0.206-0.226-0.368-0.404-0.485
		c-0.179-0.118-0.399-0.201-0.663-0.248c-0.263-0.047-0.566-0.071-0.91-0.071h-2.033c-0.289,0-0.571,0.025-0.844,0.076
		c-0.273,0.051-0.517,0.147-0.729,0.289c-0.213,0.142-0.383,0.34-0.511,0.597S248.371,24.359,248.371,24.771z M249.575,15.415
		c0,0.883,0.146,1.531,0.439,1.942c0.294,0.411,0.773,0.617,1.441,0.617c0.337,0,0.622-0.05,0.854-0.151s0.423-0.256,0.571-0.465
		s0.255-0.477,0.319-0.804c0.063-0.327,0.096-0.716,0.096-1.168c0-0.931-0.142-1.619-0.425-2.063
		c-0.283-0.445-0.762-0.667-1.437-0.667c-0.667,0-1.145,0.228-1.431,0.683C249.718,13.792,249.575,14.484,249.575,15.415z"/>
</g>
<g>
	<path fill="#FFFFFF" d="M10.212,51.121V34.623h5.312c1.352,0,2.497,0.206,3.437,0.618c0.94,0.411,1.701,0.982,2.284,1.712
		c0.583,0.73,1.005,1.604,1.27,2.622c0.264,1.018,0.396,2.132,0.396,3.344c0,1.196-0.132,2.295-0.396,3.297
		c-0.265,1.002-0.688,1.864-1.27,2.587s-1.344,1.289-2.284,1.701c-0.94,0.411-2.085,0.617-3.437,0.617H10.212z M17.808,42.919
		c0-1.228-0.194-2.179-0.583-2.854c-0.389-0.676-0.924-1.014-1.608-1.014h-0.303v7.643h0.303c0.684,0,1.219-0.338,1.608-1.014
		C17.614,45.004,17.808,44.084,17.808,42.919z"/>
	<path fill="#FFFFFF" d="M31.183,48.838H28.34l-0.443,2.283h-5.057l3.892-16.498H33l3.915,16.498h-5.29L31.183,48.838z
		 M28.899,44.923h1.678l-0.769-5.359h-0.093L28.899,44.923z"/>
	<path fill="#FFFFFF" d="M45.071,48.838h-2.843l-0.443,2.283h-5.057l3.892-16.498h6.268l3.915,16.498h-5.29L45.071,48.838z
		 M42.787,44.923h1.678l-0.769-5.359h-0.093L42.787,44.923z"/>
	<path fill="#FFFFFF" d="M57.189,45.202h-0.421v5.919h-4.847V34.623h6.141c0.949,0,1.778,0.125,2.486,0.373
		c0.708,0.249,1.288,0.606,1.739,1.072s0.79,1.029,1.016,1.689c0.226,0.66,0.339,1.401,0.339,2.225c0,0.56-0.062,1.064-0.188,1.515
		c-0.125,0.451-0.28,0.851-0.467,1.2s-0.397,0.641-0.631,0.874s-0.468,0.404-0.702,0.513l2.64,7.037h-5.352L57.189,45.202z
		 M56.768,38.841v2.89h0.419c0.14,0,0.295-0.02,0.466-0.059c0.171-0.038,0.326-0.112,0.466-0.221
		c0.14-0.108,0.256-0.257,0.349-0.443c0.093-0.187,0.14-0.427,0.14-0.722c0-0.311-0.043-0.56-0.128-0.746s-0.194-0.334-0.326-0.442
		s-0.272-0.179-0.419-0.21c-0.148-0.031-0.284-0.047-0.408-0.047H56.768z"/>
	<path fill="#FFFFFF" d="M69.49,47.066l4.357-7.992h-3.915v-4.451h9.833v3.923l-4.381,8.031h4.381v4.544H69.49V47.066z"/>
	<path fill="#FFFFFF" d="M81.724,34.623h5.126v16.498h-5.126V34.623z"/>
	<path fill="#FFFFFF" d="M95.961,51.121h-4.987v-12.21h-2.913v-4.288h10.812v4.288h-2.913V51.121z"/>
	<path fill="#FFFFFF" d="M115.883,41.707h-0.093l-2.05,9.414h-3.216l-1.887-9.414h-0.093l0.209,9.414h-4.543V34.623h6.035
		l1.934,8.622h0.093l1.911-8.622h6.408v16.498h-4.94L115.883,41.707z"/>
	<path fill="#FFFFFF" d="M123.014,34.623h8.808v4.451h-3.984v1.654h3.612v4.124h-3.612v1.725h4.288v4.544h-9.111V34.623z"/>
	<path fill="#FFFFFF" d="M133.896,34.623h8.808v4.451h-3.984v1.654h3.612v4.124h-3.612v1.725h4.288v4.544h-9.111V34.623z"/>
	<path fill="#FFFFFF" d="M150.045,45.202h-0.42v5.919h-4.848V34.623h6.141c0.949,0,1.777,0.125,2.486,0.373
		c0.709,0.249,1.289,0.606,1.74,1.072s0.789,1.029,1.016,1.689c0.225,0.66,0.338,1.401,0.338,2.225c0,0.56-0.062,1.064-0.188,1.515
		c-0.123,0.451-0.279,0.851-0.467,1.2s-0.398,0.641-0.631,0.874c-0.234,0.233-0.469,0.404-0.701,0.513l2.639,7.037h-5.352
		L150.045,45.202z M149.625,38.841v2.89h0.418c0.141,0,0.295-0.02,0.467-0.059c0.17-0.038,0.326-0.112,0.467-0.221
		c0.139-0.108,0.256-0.257,0.35-0.443c0.092-0.187,0.139-0.427,0.139-0.722c0-0.311-0.043-0.56-0.127-0.746
		c-0.086-0.187-0.195-0.334-0.326-0.442c-0.133-0.108-0.273-0.179-0.42-0.21c-0.148-0.031-0.283-0.047-0.408-0.047H149.625z"/>
	<path fill="#FFFFFF" d="M169.617,48.838h-2.843l-0.443,2.283h-5.056l3.891-16.498h6.269l3.915,16.498h-5.29L169.617,48.838z
		 M167.333,44.923h1.678l-0.769-5.359h-0.093L167.333,44.923z"/>
	<path fill="#FFFFFF" d="M175.676,42.872c0-1.32,0.171-2.517,0.513-3.588c0.341-1.072,0.815-1.988,1.421-2.75
		c0.606-0.761,1.324-1.348,2.155-1.76c0.831-0.411,1.744-0.617,2.738-0.617c0.621,0,1.188,0.059,1.701,0.175
		s0.967,0.276,1.363,0.478c0.396,0.202,0.745,0.428,1.048,0.676c0.304,0.249,0.563,0.513,0.781,0.793l-2.703,3.845
		c-0.202-0.265-0.428-0.501-0.676-0.711c-0.249-0.21-0.599-0.314-1.049-0.314c-0.326,0-0.617,0.093-0.874,0.279
		c-0.256,0.187-0.478,0.446-0.664,0.78c-0.187,0.335-0.326,0.734-0.419,1.2c-0.094,0.466-0.14,0.972-0.14,1.515
		c0,0.544,0.046,1.041,0.14,1.491c0.093,0.451,0.232,0.843,0.419,1.177c0.187,0.335,0.412,0.595,0.676,0.781
		c0.265,0.187,0.56,0.279,0.886,0.279c0.373,0,0.695-0.104,0.967-0.314s0.493-0.438,0.664-0.688l2.819,3.729
		c-0.232,0.311-0.505,0.602-0.815,0.873c-0.311,0.272-0.664,0.51-1.06,0.711c-0.396,0.202-0.848,0.365-1.352,0.489
		c-0.505,0.124-1.076,0.187-1.713,0.187c-0.994,0-1.907-0.21-2.738-0.629c-0.831-0.42-1.549-1.014-2.155-1.782
		c-0.605-0.77-1.08-1.686-1.421-2.75C175.847,45.362,175.676,44.177,175.676,42.872z"/>
	<path fill="#FFFFFF" d="M195.947,44.807h-2.236v6.314h-5.033V34.623h5.033v5.64h2.236v-5.64h5.033v16.498h-5.033V44.807z"/>
	<path fill="#FFFFFF" d="M210.092,51.121h-4.986v-12.21h-2.913v-4.288h10.812v4.288h-2.913V51.121z"/>
	<path fill="#FFFFFF" d="M214.216,34.623h8.808v4.451h-3.984v1.654h3.611v4.124h-3.611v1.725h4.287v4.544h-9.11V34.623z"/>
	<path fill="#FFFFFF" d="M230.365,45.202h-0.421v5.919h-4.847V34.623h6.141c0.949,0,1.777,0.125,2.486,0.373
		c0.708,0.249,1.288,0.606,1.739,1.072s0.79,1.029,1.016,1.689s0.339,1.401,0.339,2.225c0,0.56-0.062,1.064-0.188,1.515
		c-0.124,0.451-0.28,0.851-0.467,1.2c-0.188,0.35-0.398,0.641-0.632,0.874s-0.468,0.404-0.701,0.513l2.64,7.037h-5.353
		L230.365,45.202z M229.944,38.841v2.89h0.419c0.141,0,0.295-0.02,0.467-0.059c0.17-0.038,0.326-0.112,0.466-0.221
		s0.256-0.257,0.35-0.443c0.093-0.187,0.14-0.427,0.14-0.722c0-0.311-0.043-0.56-0.128-0.746c-0.086-0.187-0.194-0.334-0.326-0.442
		c-0.133-0.108-0.272-0.179-0.42-0.21s-0.283-0.047-0.407-0.047H229.944z"/>
</g>
</svg>
